<?xml version="1.0" encoding="utf-8"?>
<!-- Generator: Adobe Illustrator 26.0.3, SVG Export Plug-In . SVG Version: 6.00 Build 0)  -->
<svg version="1.1" id="Layer_1" xmlns="http://www.w3.org/2000/svg" xmlns:xlink="http://www.w3.org/1999/xlink" x="0px" y="0px"
	 viewBox="0 0 300 300" style="enable-background:new 0 0 300 300;" xml:space="preserve">
<style type="text/css">
	.st0{fill:#EA3E24;}
</style>
<g>
	<path class="st0" d="M270.5,36.4H29.6c-6.8,0-12.5,2.4-17.4,7.2C7.3,48.5,5,54.2,5,61v178c0,6.7,2.4,12.5,7.2,17.3
		c4.9,4.9,10.6,7.3,17.4,7.3h240.9c6.7,0,12.5-2.5,17.3-7.3c4.8-4.8,7.2-10.6,7.2-17.3V61c0-6.8-2.3-12.5-7.2-17.4
		C283,38.8,277.2,36.4,270.5,36.4z M277.3,239c0,1.8-0.7,3.4-2.1,4.8c-1.3,1.3-3,2-4.8,2H29.6c-1.9,0-3.5-0.7-4.9-2
		c-1.4-1.4-2.1-3.1-2.1-4.9V109.2l2.8,3.1c3.7,4.1,7.4,7.6,11.1,10.6c29.8,22.9,52.6,41,69.7,55.4c5,4.3,9.7,8,13.5,10.9
		c3.5,2.5,8.1,5.1,13.9,7.8c11.6,5.4,21.6,5.1,32.5,0c5.7-2.6,10.4-5.1,13.9-7.8c3.8-2.9,8.4-6.6,13.4-10.9
		c17.2-14.4,40-32.5,69.8-55.4c3.7-3,7.4-6.5,11.1-10.6l2.8-3.1V239z M277.3,67c0,6.7-2.6,14.2-7.9,22.4c-5.2,8-10.8,14.5-16.8,19.3
		c-21.1,16.6-42.9,33.9-65.6,51.9l-5.6,4.8c-3.2,2.7-5.7,4.8-7.7,6.2c-1.8,1.4-4.2,3.1-7.3,5.2c-3.1,2-6,3.6-8.6,4.7
		c-2.8,1.1-5.2,1.6-7.6,1.6c-2.7,0-5.2-0.5-7.9-1.6c-2.6-1-5.5-2.6-8.6-4.7c-3.2-2.1-5.5-3.8-7.4-5.2c-1.9-1.4-4.4-3.5-7.6-6.2
		c-3.2-2.7-5.1-4.3-5.7-4.8c-22.6-18-44.5-35.2-65.6-51.8C31,95.8,22.7,79.7,22.7,61c0-1.8,0.7-3.4,2.1-4.8c1.4-1.4,3-2,4.9-2h241.3
		l0.4,0.2c0.6,0.3,0.7,0.3,0.9,0.3c0.6-0.3,1.3-0.2,1.9,0.1c0.8,0.4,1.3,1.1,1.6,2.1c0.1,0.2,0.1,0.3,0.2,0.4l0.4,0.3
		c0.7,0.6,0.8,1.5,0.9,3.2c0.1,1.4,0.1,2,0.1,2.1V67z"/>
</g>
</svg>
