<?xml version="1.0" encoding="UTF-8"?>
<svg width="97px" height="67px" viewBox="0 0 97 67" version="1.1" xmlns="http://www.w3.org/2000/svg" xmlns:xlink="http://www.w3.org/1999/xlink">
    <!-- Generator: Sketch 42 (36781) - http://www.bohemiancoding.com/sketch -->
    <title>Facturas</title>
    <desc>Created with Sketch.</desc>
    <defs></defs>
    <g id="Page-1" stroke="none" stroke-width="1" fill="none" fill-rule="evenodd">
        <g id="Desktop-HD" transform="translate(-380.000000, -553.000000)">
            <g id="Facturas" transform="translate(380.000000, 553.000000)">
                <g id="Layer_2">
                    <g>
                        <g id="Layer_1-2">
                            <polygon id="Shape" fill="#6D6E70" points="44.67 0 43.67 0 43.67 1 44.67 1"></polygon>
                            <polygon id="Shape" fill="#6D6E70" points="46.71 1 50.78 1 50.78 0 45.69 0 45.69 2 46.69 2"></polygon>
                            <path d="M42.64,0 L35.52,0 L35.52,7.12 L42.64,7.12 L42.64,0 Z M41.64,6.1 L36.54,6.1 L36.54,1 L41.62,1 L41.64,6.1 Z" id="Shape" fill="#6D6E70"></path>
                            <path d="M53.83,0 L53.83,7.12 L61,7.12 L61,0 L53.83,0 Z M59.93,6.1 L54.85,6.1 L54.85,1 L59.93,1 L59.93,6.1 Z" id="Shape" fill="#6D6E70"></path>
                            <polygon id="Shape" fill="#6D6E70" points="40.61 2 37.55 2 37.55 5.09 40.61 5.09"></polygon>
                            <polygon id="Shape" fill="#6D6E70" points="43.66 2 43.66 3 45.66 3 45.66 2"></polygon>
                            <polygon id="Shape" fill="#6D6E70" points="50.78 4.07 50.78 3.07 49.78 3.07 49.78 2 46.78 2 46.78 3 45.78 3 45.78 4 44.78 4 44.78 5 43.78 5 43.78 7 44.78 7 44.78 6 45.78 6 45.78 7 46.78 7 46.78 5 47.78 5 47.78 4 48.78 4 48.78 6 49.78 6 49.78 4"></polygon>
                            <polygon id="Shape" fill="#6D6E70" points="52.81 2 51.81 2 51.81 4 52.81 4"></polygon>
                            <polygon id="Shape" fill="#6D6E70" points="58.92 2 55.86 2 55.86 5.09 58.92 5.09"></polygon>
                            <polygon id="Shape" fill="#6D6E70" points="52.81 5.09 51.81 5.09 51.81 8.14 52.81 8.14"></polygon>
                            <polygon id="Shape" fill="#6D6E70" points="47.73 7.12 48.73 7.12 48.73 6.12 47.73 6.12"></polygon>
                            <polygon id="Shape" fill="#6D6E70" points="49.76 6.1 49.76 8.1 50.76 8.1 50.76 6.1"></polygon>
                            <polygon id="Shape" fill="#6D6E70" points="39.59 12.21 39.59 11.21 38.59 11.21 38.59 8.21 37.59 8.21 37.59 9.21 36.59 9.21 36.59 8.21 35.59 8.21 35.59 11.21 36.59 11.21 36.59 12.21 35.59 12.21 35.59 14.21 36.59 14.21 36.59 13.21 37.59 13.21 37.59 14.21 38.59 14.21 38.59 12.21"></polygon>
                            <polygon id="Shape" fill="#6D6E70" points="42.64 10.17 43.64 10.17 43.64 8.17 41.64 8.17 41.64 9.17 42.64 9.17"></polygon>
                            <polygon id="Shape" fill="#6D6E70" points="48.74 10.17 48.74 9.17 46.74 9.17 46.74 8.17 45.74 8.17 45.74 10.17 46.74 10.17 46.74 11.17 47.74 11.17 47.74 10.17"></polygon>
                            <polygon id="Shape" fill="#6D6E70" points="58.92 8.14 57.92 8.14 57.92 9.14 58.92 9.14"></polygon>
                            <polygon id="Shape" fill="#6D6E70" points="59.93 9.16 58.93 9.16 58.93 10.16 59.93 10.16 59.93 11.16 60.93 11.16 60.93 8.16 59.93 8.16"></polygon>
                            <polygon id="Shape" fill="#6D6E70" points="41.62 9.16 40.62 9.16 40.62 10.16 41.62 10.16"></polygon>
                            <polygon id="Shape" fill="#6D6E70" points="57.9 9.16 56.9 9.16 56.9 12.21 57.9 12.21 57.9 11.21 58.9 11.21 58.9 10.21 57.9 10.21"></polygon>
                            <polygon id="Shape" fill="#6D6E70" points="40.61 10.17 39.61 10.17 39.61 11.17 40.61 11.17"></polygon>
                            <polygon id="Shape" fill="#6D6E70" points="42.64 10.17 41.64 10.17 41.64 11.17 42.64 11.17"></polygon>
                            <polygon id="Shape" fill="#6D6E70" points="42.64 11.19 42.64 12.19 43.64 12.19 43.64 13.19 44.64 13.19 44.64 10.17 43.64 10.17 43.64 11.17"></polygon>
                            <path d="M51.8,12.21 L52.8,12.21 L52.8,13.21 L53.8,13.21 L53.8,14.21 L55.8,14.21 L55.8,13.21 L54.8,13.21 L54.8,12.21 L55.8,12.21 L55.8,11.21 L54.8,11.21 L54.8,10.21 L55.8,10.21 L55.8,8.21 L54.8,8.21 L54.8,9.21 L51.8,9.21 L51.8,8.21 L50.8,8.21 L50.8,9.21 L49.8,9.21 L49.8,10.21 L50.8,10.21 L50.8,11.21 L51.8,11.21 L51.8,12.21 Z M52.8,10.21 L53.8,10.21 L53.8,11.21 L52.8,11.21 L52.8,10.21 Z" id="Shape" fill="#6D6E70"></path>
                            <polygon id="Shape" fill="#6D6E70" points="41.62 14.24 41.62 13.24 42.62 13.24 42.62 12.24 41.62 12.24 41.62 11.24 40.62 11.24 40.62 14.29 38.62 14.29 38.62 15.29 39.62 15.29 39.62 17.29 40.62 17.29 40.62 15.29 42.62 15.29 42.62 14.29"></polygon>
                            <polygon id="Shape" fill="#6D6E70" points="47.73 17.29 48.73 17.29 48.73 15.29 49.73 15.29 49.73 14.29 48.73 14.29 48.73 11.19 47.73 11.19 47.73 12.19 45.73 12.19 45.73 13.19 47.73 13.19 47.73 15.19 46.73 15.19 46.73 14.19 45.73 14.19 45.73 15.19 44.73 15.19 44.73 16.19 47.79 16.19"></polygon>
                            <polygon id="Shape" fill="#6D6E70" points="49.76 11.19 49.76 12.19 50.76 12.19 50.76 11.19"></polygon>
                            <polygon id="Shape" fill="#6D6E70" points="59.93 13.22 58.93 13.22 58.93 14.22 59.93 14.22 59.93 15.22 60.93 15.22 60.93 12.22 59.93 12.22"></polygon>
                            <polygon id="Shape" fill="#6D6E70" points="56.88 15.26 58.88 15.26 58.88 14.26 56.88 14.26"></polygon>
                            <polygon id="Shape" fill="#6D6E70" points="37.55 15.26 35.55 15.26 35.55 16.26 37.55 16.26"></polygon>
                            <polygon id="Shape" fill="#6D6E70" points="45.69 20.34 46.69 20.34 46.69 19.34 45.69 19.34 45.69 18.34 46.69 18.34 46.69 17.34 44.69 17.34 44.69 16.34 43.69 16.34 43.69 15.34 42.69 15.34 42.69 16.34 41.69 16.34 41.69 17.34 43.69 17.34 43.69 19.34 44.69 19.34 44.69 22.39 46.69 22.39 46.69 23.39 47.69 23.39 47.69 22.39 49.69 22.39 49.69 21.39 45.69 21.39"></polygon>
                            <polygon id="Shape" fill="#6D6E70" points="59.93 16.28 58.93 16.28 58.93 17.28 59.93 17.28"></polygon>
                            <polygon id="Shape" fill="#6D6E70" points="58.92 17.29 57.92 17.29 57.92 18.29 58.92 18.29"></polygon>
                            <polygon id="Shape" fill="#6D6E70" points="59.93 19.33 60.93 19.33 60.93 17.33 59.93 17.33"></polygon>
                            <ellipse id="Oval" fill="#6D6E70" fill-rule="nonzero" cx="47.73" cy="18.82" rx="1.44" ry="0.72"></ellipse>
                            <polygon id="Shape" fill="#6D6E70" points="49.76 18.31 49.76 19.31 50.76 19.31 50.76 18.31"></polygon>
                            <polygon id="Shape" fill="#6D6E70" points="54.85 18.31 53.85 18.31 53.85 19.31 54.85 19.31"></polygon>
                            <path d="M35.52,25.43 L42.64,25.43 L42.64,18.31 L35.52,18.31 L35.52,25.43 Z M36.52,19.33 L41.6,19.33 L41.6,24.41 L36.54,24.41 L36.52,19.33 Z" id="Shape" fill="#6D6E70"></path>
                            <polygon id="Shape" fill="#6D6E70" points="37.55 23.4 40.61 23.4 40.61 20.34 37.55 20.34"></polygon>
                            <path d="M58.92,21.36 L57.92,21.36 L57.92,20.36 L56.92,20.36 L56.92,19.36 L57.92,19.36 L57.92,18.36 L56.92,18.36 L56.92,16.36 L55.92,16.36 L55.92,15.36 L53.92,15.36 L53.92,16.36 L51.92,16.36 L51.92,14.36 L52.92,14.36 L52.92,13.36 L51.92,13.36 L51.92,12.36 L50.92,12.36 L50.92,15.36 L49.92,15.36 L49.92,16.36 L50.92,16.36 L50.92,17.36 L51.92,17.36 L51.92,19.36 L50.92,19.36 L50.92,20.36 L49.92,20.36 L49.92,21.36 L50.92,21.36 L50.92,23.36 L51.92,23.36 L51.92,25.36 L53.92,25.36 L53.92,21.36 L54.92,21.36 L54.92,22.36 L55.92,22.36 L55.92,23.36 L54.92,23.36 L54.92,24.36 L56.92,24.36 L56.92,22.36 L58.92,22.36 L58.92,23.36 L60.92,23.36 L60.92,22.36 L59.92,22.36 L59.92,19.33 L58.92,19.33 L58.92,21.36 Z M52.81,22.36 L51.81,22.36 L51.81,21.36 L52.81,21.36 L52.81,22.36 Z M55.81,20.36 L52.81,20.36 L52.81,17.29 L55.81,17.29 L55.81,20.36 Z" id="Shape" fill="#6D6E70"></path>
                            <polygon id="Shape" fill="#6D6E70" points="43.66 23.4 44.66 23.4 44.66 22.4 43.66 22.4"></polygon>
                            <polygon id="Shape" fill="#6D6E70" points="45.69 24.41 45.69 23.41 44.69 23.41 44.69 24.41"></polygon>
                            <polygon id="Shape" fill="#6D6E70" points="48.74 25.43 48.74 23.43 47.74 23.43 47.74 25.43"></polygon>
                            <polygon id="Shape" fill="#6D6E70" points="43.66 25.43 44.66 25.43 44.66 24.43 43.66 24.43"></polygon>
                            <polygon id="Shape" fill="#6D6E70" points="57.9 25.43 57.9 24.43 56.9 24.43 56.9 25.43"></polygon>
                            <polygon id="Shape" fill="#6D6E70" points="59.93 25.43 60.93 25.43 60.93 24.43 59.93 24.43"></polygon>
                            <path d="M22.83,58.67 L1,58.67 C0.44771525,58.67 6.76353751e-17,58.2222847 0,57.67 C-6.76353751e-17,57.1177153 0.44771525,56.67 1,56.67 L22.83,56.67 C23.3822847,56.67 23.83,57.1177153 23.83,57.67 C23.83,58.2222847 23.3822847,58.67 22.83,58.67 Z" id="Shape" fill="#6D6E70" fill-rule="nonzero"></path>
                            <path d="M95.74,58.67 L73.91,58.67 C73.3577153,58.67 72.91,58.2222847 72.91,57.67 C72.91,57.1177153 73.3577153,56.67 73.91,56.67 L95.74,56.67 C96.2922847,56.67 96.74,57.1177153 96.74,57.67 C96.74,58.2222847 96.2922847,58.67 95.74,58.67 Z" id="Shape" fill="#6D6E70" fill-rule="nonzero"></path>
                            <path d="M23.83,49.67 L29.88,64.05 L34.18,53.88 C34.2869793,53.6653179 34.5005605,53.5242018 34.74,53.51 C34.9933042,53.5119511 35.2245272,53.6545386 35.34,53.88 L39.62,64.05 L45.62,49.67 C45.6851242,49.5232191 45.8072629,49.4093239 45.9582295,49.3545985 C46.1091961,49.2998731 46.2759469,49.3090459 46.42,49.38 C46.5627931,49.4410919 46.6744737,49.5578067 46.7292145,49.703153 C46.7839553,49.8484993 46.7770155,50.0098893 46.71,50.15 L40.18,65.77 C40.0859211,65.968903 39.9049406,66.1129487 39.69,66.16 L39.57,66.16 C39.4653616,66.1572172 39.3641138,66.1223041 39.28,66.06 C39.28,66.06 39.21,66.06 39.18,65.96 C39.1454925,65.9163898 39.115348,65.8694984 39.09,65.82 C39.1025032,65.7947989 39.1025032,65.7652011 39.09,65.74 L34.79,55.52 L30.43,65.74 C30.4429632,65.7789497 30.4429632,65.8210503 30.43,65.86 C30.4033663,65.9276801 30.3583374,65.9865639 30.3,66.03 L30.3,66.03 C30.1995925,66.0973885 30.0809032,66.1322971 29.96,66.13 C29.827996,66.1330228 29.6996172,66.0866638 29.6,66 L29.55,66 L29.55,66 C29.474385,65.9201933 29.4254593,65.8188473 29.41,65.71 L22.77,50.15 C22.7029845,50.0098893 22.6960447,49.8484993 22.7507855,49.703153 C22.8055263,49.5578067 22.9172069,49.4410919 23.06,49.38 C23.2001107,49.3129845 23.3615007,49.3060447 23.506847,49.3607855 C23.6521933,49.4155263 23.7689081,49.5272069 23.83,49.67 L23.83,49.67 Z" id="Shape" fill="#C22D29" fill-rule="nonzero"></path>
                            <path d="M47,60.26 C46.8784975,57.0954084 49.3454085,54.4315028 52.51,54.3100002 C55.6745916,54.1884975 58.3384973,56.6554085 58.46,59.82 L58.46,59.92 C58.4548502,60.0677178 58.390461,60.2071459 58.281348,60.3068526 C58.172235,60.4065593 58.0275826,60.458152 57.88,60.45 L48.2,60.45 C48.2538449,62.9596733 50.2898881,64.9735856 52.8,65 C54.3619672,65.001692 55.8109995,64.1861372 56.62,62.85 C56.6948321,62.7203987 56.8192449,62.626887 56.964541,62.5910347 C57.1098371,62.5551824 57.2634692,62.5800856 57.39,62.66 C57.6575963,62.8418831 57.7403341,63.1989623 57.58,63.48 C56.5593282,65.1432209 54.7514064,66.1606497 52.8,66.17 C51.2450342,66.162145 49.7576404,65.5334226 48.6684763,64.4236019 C47.5793122,63.3137813 46.9786424,61.814839 47,60.26 Z M48.24,59.31 L57.24,59.31 C56.8901785,57.1209042 55.0166599,55.5005638 52.8,55.47 C50.56215,55.4863246 48.6577693,57.1042054 48.28,59.31 L48.24,59.31 Z" id="Shape" fill="#C22D29" fill-rule="nonzero"></path>
                            <path d="M60,60.5 L60,49.81 C60.0053471,49.491916 60.261916,49.2353471 60.58,49.23 C60.9075858,49.224359 61.1791274,49.4825461 61.19,49.81 L61.19,56.63 C62.2485581,55.1790142 63.9339363,54.3177636 65.73,54.31 C68.9076609,54.4405735 71.4165354,57.0546576 71.4165354,60.235 C71.4165354,63.4153424 68.9076609,66.0294265 65.73,66.16 C63.9367322,66.1601263 62.2506717,65.3059547 61.19,63.86 L61.19,65.57 C61.1873698,65.729137 61.1216191,65.8807088 61.007217,65.99136 C60.8928149,66.1020111 60.7391363,66.1626744 60.58,66.16 C60.2603051,66.1493792 60.0051548,65.8898298 60,65.57 L60,60.5 Z M61.19,60.26 C61.2448108,62.8190767 63.3494152,64.8571393 65.9089321,64.8297323 C68.468449,64.8023253 70.5289292,62.7196637 70.5289292,60.16 C70.5289292,57.6003363 68.468449,55.5176747 65.9089321,55.4902677 C63.3494152,55.4628607 61.2448108,57.5009233 61.19,60.06 L61.19,60.26 Z" id="Shape" fill="#C22D29" fill-rule="nonzero"></path>
                            <path d="M0.49,27.89 L0.49,46.5 C1.74096543,46.7133875 3.01903457,46.7133875 4.27,46.5 L4.27,38.71 L9.66,38.71 C9.76036179,38.1724831 9.8105775,37.6268058 9.81,37.08 C9.80782061,36.5399481 9.75762293,36.0011597 9.66,35.47 L4.27,35.47 L4.27,31.1 L11.05,31.1 C11.1600959,30.563743 11.2137218,30.0174293 11.21,29.47 C11.2127334,28.9391551 11.1590994,28.4095201 11.05,27.89 L0.49,27.89 Z" id="Shape" fill="#C22D29" fill-rule="nonzero"></path>
                            <path d="M21.84,34.1 C20.6379239,33.1768121 19.1429215,32.7187235 17.63,32.81 C16.1326623,32.8230864 14.6471201,33.0763038 13.23,33.56 C13.2196522,34.0461994 13.2802907,34.5313077 13.41,35 C13.5649461,35.4351111 13.762576,35.8538185 14,36.25 C14.9633997,35.9058722 15.9770713,35.7234113 17,35.71 C17.3944804,35.7059543 17.7887646,35.729344 18.18,35.78 C18.4921123,35.8264198 18.7934755,35.928003 19.07,36.08 C19.3106354,36.2293066 19.5073316,36.4398061 19.64,36.69 C19.7901014,37.0013567 19.8621752,37.3445652 19.85,37.69 L19.85,38 C19.25,38 18.69,37.92 18.19,37.92 C17.4943788,37.92392 16.8009059,37.9976224 16.12,38.14 C15.4571175,38.2771581 14.8217406,38.5238737 14.24,38.87 C13.6829845,39.2053073 13.213462,39.6679754 12.87,40.22 C12.499723,40.8490701 12.3159117,41.5704426 12.34,42.3 C12.3159598,43.0240949 12.463293,43.7436295 12.77,44.4 C13.0486119,44.9613756 13.4648933,45.4430235 13.98,45.8 C14.5554578,46.1811631 15.2015406,46.4429966 15.88,46.57 C16.6757318,46.7365139 17.4870625,46.8169765 18.3,46.81 C19.2794471,46.8178666 20.2573514,46.7307929 21.22,46.55 C21.9620567,46.4035152 22.6963101,46.2199519 23.42,46 L23.42,38.24 C23.5414104,36.6928027 22.9613532,35.1729059 21.84,34.1 Z M19.78,43.79 L19.11,43.9 C18.8528208,43.9481073 18.5916354,43.971547 18.33,43.97 L17.54,43.97 C17.2477731,43.9428184 16.9612634,43.8720336 16.69,43.76 C16.417686,43.6465808 16.1798025,43.4638587 16,43.23 C15.7979386,42.9367023 15.6962048,42.5858962 15.71,42.23 C15.6679847,41.6439928 15.9525394,41.0825742 16.45,40.77 C17.0635699,40.4415322 17.7548724,40.2859891 18.45,40.32 C18.6664672,40.3068505 18.8835328,40.3068505 19.1,40.32 C19.3247649,40.3381571 19.5484111,40.3681992 19.77,40.41 L19.78,43.79 Z" id="Shape" fill="#C22D29" fill-rule="nonzero"></path>
                            <path d="M35.6,43.35 L34.84,43.6 C34.6314361,43.6708643 34.4173749,43.7243796 34.2,43.76 C33.9917399,43.7953047 33.7811803,43.815358 33.57,43.82 L32.86,43.82 C31.9550625,43.8542308 31.0809165,43.4884794 30.47,42.82 C29.811018,41.9425893 29.4977979,40.8534376 29.59,39.76 C29.5235822,38.6967868 29.8119985,37.6416052 30.41,36.76 C31.0087474,36.0566626 31.9094134,35.6844866 32.83,35.76 C33.2749838,35.755902 33.719625,35.7859905 34.16,35.85 C34.6211346,35.9339267 35.0756393,36.0508948 35.52,36.2 C35.7471487,35.7536895 35.9152278,35.2797065 36.02,34.79 C36.1143999,34.3528064 36.1646521,33.9072371 36.17,33.46 C35.81,33.32 35.48,33.21 35.17,33.12 C34.86,33.03 34.58,32.97 34.29,32.92 C33.9861862,32.8624895 33.6788083,32.8257378 33.37,32.81 L32.37,32.81 C31.4025088,32.7899686 30.4416484,32.9739632 29.55,33.35 C28.7789935,33.6931999 28.0953537,34.2059297 27.55,34.85 C26.9986823,35.5029506 26.586893,36.2618682 26.34,37.08 C25.7867518,38.8818211 25.7867518,40.8081789 26.34,42.61 C26.5976592,43.4216922 27.0159552,44.1732646 27.57,44.82 C28.1353744,45.4584735 28.840281,45.9580675 29.63,46.28 C30.5558947,46.6587079 31.5499035,46.8425315 32.55,46.82 C33.1819595,46.8218065 33.8133437,46.7817186 34.44,46.7 C35.1089591,46.6024453 35.7636955,46.4244913 36.39,46.17 C36.3997049,45.6226302 36.3289496,45.0768035 36.18,44.55 C36.0399914,44.1263509 35.8449933,43.7229065 35.6,43.35 L35.6,43.35 Z" id="Shape" fill="#C22D29" fill-rule="nonzero"></path>
                            <path d="M46.3,43.55 L45.63,43.67 C45.3786732,43.7102449 45.1245284,43.7303089 44.87,43.73 C44.5833749,43.7367831 44.297225,43.7031184 44.02,43.63 C43.7813633,43.5659037 43.5683309,43.4297028 43.41,43.24 C43.2268284,43.0153117 43.0969133,42.7520625 43.03,42.47 C42.936184,42.0432086 42.8925549,41.6069175 42.9,41.17 L42.9,35.91 L46,35.91 C46.05,35.64 46.08,35.39 46.1,35.16 C46.12,34.93 46.1,34.71 46.1,34.46 L46.1,33.82 C46.1,33.62 46.1,33.38 46,33.12 L42.9,33.12 L42.9,29.21 L42.31,29.21 L37.46,35.4 L37.59,35.91 L39.28,35.91 L39.28,42 C39.1529372,43.3198917 39.605418,44.6298965 40.52,45.59 C41.5445398,46.3856593 42.8257188,46.7771306 44.12,46.69 C44.9485754,46.6908268 45.7743309,46.5934817 46.58,46.4 L46.58,46.03 L46.58,45.55 C46.5799159,45.2349702 46.5531536,44.9205133 46.5,44.61 C46.4717541,44.2504881 46.4046973,43.8950871 46.3,43.55 Z" id="Shape" fill="#C22D29" fill-rule="nonzero"></path>
                            <path d="M56.65,33.12 L56.65,43.6 C56.1285873,43.7399914 55.5896973,43.8039846 55.05,43.79 C54.6369951,43.7966647 54.2254499,43.7393182 53.83,43.62 C53.4948058,43.5100516 53.1946559,43.3134016 52.96,43.05 C52.7117125,42.7437515 52.5372117,42.3844853 52.45,42 C52.3213507,41.4259144 52.26425,40.838113 52.28,40.25 L52.28,33.12 C51.0626087,32.9066667 49.8173913,32.9066667 48.6,33.12 L48.6,40.32 C48.5563854,41.4907662 48.7397567,42.6589092 49.14,43.76 C49.4370252,44.5490172 49.9456227,45.2409866 50.61,45.76 C51.2406896,46.2171629 51.9705496,46.5187013 52.74,46.64 C53.5791333,46.7822704 54.4288953,46.8525263 55.28,46.85 C56.2335293,46.8494401 57.1847201,46.7556607 58.12,46.57 C58.8581754,46.4271096 59.5863564,46.2367137 60.3,46 L60.3,33.12 C59.0926817,32.9067038 57.8573183,32.9067038 56.65,33.12 L56.65,33.12 Z" id="Shape" fill="#C22D29" fill-rule="nonzero"></path>
                            <path d="M71.62,33.07 C71.461673,33.0186211 71.2964467,32.9916454 71.13,32.99 L70.53,32.99 C69.7872133,32.9610922 69.0568532,33.186904 68.46,33.63 C67.9292948,34.0162747 67.4576782,34.4777852 67.06,35 C67.06,34.88 67.04,34.73 67,34.55 L66.91,34 C66.91,33.82 66.83,33.64 66.79,33.48 C66.7612124,33.3474448 66.7140925,33.2195481 66.65,33.1 L65.91,33 C65.6568855,32.9851082 65.4031145,32.9851082 65.15,33 C64.8935911,32.9837309 64.6364089,32.9837309 64.38,33 L63.64,33.12 L63.64,46.53 C63.9710074,46.5835017 64.3049528,46.6168963 64.64,46.63 L65.53,46.63 L66.44,46.63 C66.7518108,46.6164728 67.0624413,46.5830717 67.37,46.53 L67.37,40.16 C67.3253611,39.4287534 67.4203871,38.6956954 67.65,38 C67.815847,37.5501601 68.0948166,37.1506481 68.46,36.84 C68.7478198,36.5986928 69.0916962,36.4336322 69.46,36.36 C69.7902334,36.3021137 70.1247376,36.2720083 70.46,36.27 L70.89,36.27 C71.0996734,36.2534368 71.3103266,36.2534368 71.52,36.27 C71.594268,35.9411168 71.6410956,35.6066341 71.66,35.27 L71.66,34.27 L71.66,33.57 C71.66,33.34 71.65,33.24 71.62,33.07 Z" id="Shape" fill="#C22D29" fill-rule="nonzero"></path>
                            <path d="M82.53,34.1 C81.3309949,33.178314 79.8396572,32.7202603 78.33,32.81 C76.8293031,32.8220167 75.3402999,33.0752486 73.92,33.56 C73.9096522,34.0461994 73.9702907,34.5313077 74.1,35 C74.2456827,35.4386633 74.4297275,35.8636394 74.65,36.27 C75.6129191,35.924073 76.6268944,35.7415574 77.65,35.73 C78.0444725,35.7262734 78.4387347,35.7496618 78.83,35.8 C79.1421123,35.8464198 79.4434755,35.948003 79.72,36.1 C79.9606354,36.2493066 80.1573316,36.4598061 80.29,36.71 C80.4401014,37.0213567 80.5121752,37.3645652 80.5,37.71 L80.5,38 C79.89,38 79.34,37.92 78.84,37.92 C78.1443788,37.92392 77.4509059,37.9976224 76.77,38.14 C76.1071175,38.2771581 75.4717406,38.5238737 74.89,38.87 C74.3303298,39.2018749 73.860069,39.6652706 73.52,40.22 C73.146582,40.8510586 72.9658325,41.5775326 73,42.31 C72.9776062,43.0329044 73.1212886,43.7513166 73.42,44.41 C73.7025026,44.9718103 74.1221031,45.453319 74.64,45.81 C75.2128299,46.1892234 75.8552479,46.4509493 76.53,46.58 C77.3257318,46.7465139 78.1370625,46.8269765 78.95,46.82 C79.9327579,46.8278238 80.9139759,46.7407533 81.88,46.56 C82.74,46.38 83.47,46.2 84.08,46.01 L84.08,38.24 C84.2091193,36.6975516 83.6403529,35.1783948 82.53,34.1 L82.53,34.1 Z M80.53,43.79 L79.85,43.9 C79.570956,43.9630408 79.2860556,43.9965585 79,44 L78.21,44 C77.9145257,43.9729141 77.6247043,43.9021437 77.35,43.79 C77.077686,43.6765808 76.8398025,43.4938587 76.66,43.26 C76.4614703,42.9654908 76.3632717,42.6147814 76.38,42.26 C76.3379847,41.6739928 76.6225394,41.1125742 77.12,40.8 C77.7332141,40.4705774 78.424785,40.314974 79.12,40.35 C79.3364587,40.3365744 79.5535413,40.3365744 79.77,40.35 C79.9980734,40.3681932 80.2250465,40.3982337 80.45,40.44 L80.53,43.79 Z" id="Shape" fill="#C22D29" fill-rule="nonzero"></path>
                            <path d="M96.27,40.7 C96.1306328,40.2987915 95.9092702,39.9309891 95.62,39.62 C95.333244,39.3159197 94.9946235,39.0653405 94.62,38.88 C94.2003843,38.6690896 93.7617655,38.4983296 93.31,38.37 L91.83,37.93 C91.476066,37.8355088 91.1387841,37.6871047 90.83,37.49 C90.5782652,37.3054312 90.4447026,37.0001454 90.48,36.69 C90.4554435,36.3282829 90.647943,35.986498 90.97,35.82 C91.3974749,35.6185864 91.8680693,35.5258416 92.34,35.55 C92.8730269,35.5492359 93.4039756,35.6164446 93.92,35.75 C94.387771,35.8638056 94.8458536,36.0142707 95.29,36.2 C95.4992308,35.7958351 95.6635448,35.3699602 95.78,34.93 C95.9169016,34.4740754 96.0040755,34.0046775 96.04,33.53 C95.3893679,33.2951469 94.7204192,33.1145307 94.04,32.99 C93.3801633,32.8695328 92.7107431,32.809285 92.04,32.81 C90.6679309,32.7327599 89.3103516,33.1241659 88.19,33.92 C87.2663496,34.6679566 86.7569583,35.8131576 86.82,37 C86.7520203,37.8920628 87.043684,38.7742554 87.63,39.45 C88.2722363,40.0429106 89.0525891,40.4657449 89.9,40.68 L91.51,41.14 C91.8652307,41.2496815 92.2022303,41.4114413 92.51,41.62 C92.784559,41.8335043 92.9284635,42.1743306 92.89,42.52 C92.9023198,42.7801945 92.8126253,43.034927 92.64,43.23 C92.4728264,43.4168529 92.268461,43.5667208 92.04,43.67 C91.7884799,43.782586 91.522647,43.8599804 91.25,43.9 C90.9891599,43.9459346 90.724853,43.9693542 90.46,43.97 C89.9221298,43.970564 89.3857432,43.913573 88.86,43.8 C88.309366,43.6777279 87.7706064,43.5070649 87.25,43.29 C87.0402192,43.7377531 86.8695825,44.2028216 86.74,44.68 C86.6132184,45.1412521 86.529526,45.613277 86.49,46.09 C86.86,46.23 87.19,46.34 87.49,46.43 C87.79,46.52 88.12,46.59 88.44,46.65 C88.76,46.71 89.09,46.75 89.44,46.78 C89.79,46.81 90.16,46.78 90.58,46.78 C91.413059,46.7895971 92.242675,46.6715623 93.04,46.43 C93.7099081,46.2062797 94.335875,45.8679192 94.89,45.43 C95.3788407,45.0421349 95.77511,44.5502143 96.05,43.99 C96.320177,43.432369 96.4571098,42.8195945 96.45,42.2 C96.4727114,41.6935105 96.4118985,41.1867364 96.27,40.7 Z" id="Shape" fill="#C22D29" fill-rule="nonzero"></path>
                        </g>
                    </g>
                </g>
            </g>
        </g>
    </g>
</svg>