<svg xmlns="http://www.w3.org/2000/svg" viewBox="0 0 77.83 77.82"><defs><style>.cls-1{fill:#28245e;}</style></defs><title>icono-tecnologia</title><g id="Layer_2" data-name="Layer 2"><g id="Layer_1-2" data-name="Layer 1"><path class="cls-1" d="M74.23,27.41a3.58,3.58,0,0,0-3.33,2.38H53a13.57,13.57,0,0,0-1.51-4h13.1a3.56,3.56,0,1,0,0-2.38H49.63V8H60.18a3.57,3.57,0,1,0,0-2.38H48.44a1.19,1.19,0,0,0-1.19,1.19V21.46a13.38,13.38,0,0,0-4.76-2V13.29a3.57,3.57,0,1,0-2.38,0v5.79h-.48a13.73,13.73,0,0,0-3.49.48V6.94a3.57,3.57,0,1,0-2.38,0V20.43a13.51,13.51,0,0,0-4,2.85v-10a3.57,3.57,0,1,0-2.38,0V24.63H9.56V14.08a3.57,3.57,0,1,0-2.38,0V25.82A1.19,1.19,0,0,0,8.37,27H26.62a11.1,11.1,0,0,0-7.86,4.77H13.29a3.56,3.56,0,1,0,0,2.38h4.2A11,11,0,0,0,16.78,38H6.94a3.57,3.57,0,1,0,0,2.38H17a10.87,10.87,0,0,0,1.74,4H13.29a3.57,3.57,0,1,0,0,2.38h7.77a11.13,11.13,0,0,0,5.16,2.3V65.82l-1.9-1.91a1.19,1.19,0,0,0-1.67,1.67l4,4a1.19,1.19,0,0,0,1.66,0l4-4a1.19,1.19,0,0,0-1.67-1.67l-2,1.91V49.23H39.31V73.75l-1.9-1.9a1.19,1.19,0,0,0-1.67-.24,1.2,1.2,0,0,0-.24,1.67,1,1,0,0,0,.24.23l4,4a1.2,1.2,0,0,0,1.67,0l4-4a1.19,1.19,0,0,0-1.66-1.66l-1.91,1.9V49.23H50.5v11l-1.9-1.9a1.19,1.19,0,0,0-1.91,1.43,1,1,0,0,0,.24.23l4,4a1.18,1.18,0,0,0,1.67,0l4-4a1.19,1.19,0,0,0-1.66-1.66L53,60.26V49.15a8.93,8.93,0,0,0,6.43-3.49H70.1a3.57,3.57,0,1,0,0-2.38H60.5a9,9,0,0,0,.4-4.76h3.65a3.58,3.58,0,1,0,0-2.38H60.1a9,9,0,0,0-4-4H70.9a3.57,3.57,0,1,0,3.33-4.76ZM63.52,5.59a1.19,1.19,0,1,1-1.19,1.19A1.19,1.19,0,0,1,63.52,5.59ZM41.3,8.76a1.19,1.19,0,0,1,0,2.38,1.19,1.19,0,1,1,0-2.38ZM35,2.42a1.19,1.19,0,1,1-1.19,1.19A1.19,1.19,0,0,1,35,2.42ZM8.37,9.56a1.19,1.19,0,1,1-1.19,1.19h0A1.19,1.19,0,0,1,8.37,9.56ZM10,34.16a1.19,1.19,0,0,1,0-2.38,1.19,1.19,0,1,1,0,2.38ZM3.61,40.5a1.19,1.19,0,0,1,0-2.38,1.19,1.19,0,1,1,0,2.38Zm69.82,2.78a1.19,1.19,0,1,1-1.19,1.19A1.19,1.19,0,0,1,73.43,43.28Zm-5.55-7.14a1.19,1.19,0,1,1-1.19,1.19A1.19,1.19,0,0,1,67.88,36.14Zm0-12.7a1.19,1.19,0,1,1-1.19,1.19A1.19,1.19,0,0,1,67.88,23.44ZM28.6,8.76A1.19,1.19,0,1,1,27.41,10,1.19,1.19,0,0,1,28.6,8.76ZM10,46.85a1.19,1.19,0,1,1,1.19-1.19h0A1.19,1.19,0,0,1,10,46.85Zm48.73-6.66a6.66,6.66,0,0,1-6.59,6.66H27.89a8.77,8.77,0,1,1,0-17.53,1.21,1.21,0,0,0,1.27-.72,11.18,11.18,0,0,1,10.47-7.14A11.34,11.34,0,0,1,50.9,32.41a1.19,1.19,0,0,0,1.19,1.19A6.67,6.67,0,0,1,58.68,40.19Zm15.55-8A1.19,1.19,0,1,1,75.42,31,1.19,1.19,0,0,1,74.23,32.17Z"/></g></g></svg>