<svg xmlns="http://www.w3.org/2000/svg" viewBox="0 0 63.14 53.37"><defs><style>.cls-1{fill:none;stroke-linecap:round;stroke-linejoin:round;stroke-width:3px;}.cls-1,.cls-2{stroke:#28245e;}.cls-2{fill:#28245e;stroke-miterlimit:10;stroke-width:1.3px;}</style></defs><title>icono-flexibilidad</title><g id="Layer_2" data-name="Layer 2"><g id="Layer_1-2" data-name="Layer 1"><path class="cls-1" d="M8.79,37.09V14C8.79,5.48,14.1,1.49,19.37,1.5S30,5.51,30,14.1V37.67c0,9.28,6.1,14.2,12.23,14.2S54.41,47,54.41,37.67v-23"/><path class="cls-2" d="M55.21,14.94l5.95,5.35a.79.79,0,0,0,1.12,0,.82.82,0,0,0,.21-.53h0a.75.75,0,0,0-.27-.61L55,12.59a.79.79,0,0,0-1.06,0L46,19.76A.79.79,0,0,0,47,21h0L53.62,15Z"/><path class="cls-2" d="M7.93,37.09,2,31.75a.79.79,0,0,0-1.34.57h0a.82.82,0,0,0,.27.61l7.25,6.51a.77.77,0,0,0,1.06,0l8-7.16a.79.79,0,0,0,.08-1.12.8.8,0,0,0-1.13-.07h0L9.52,37Z"/></g></g></svg>