<svg xmlns="http://www.w3.org/2000/svg" viewBox="0 0 72 72"><defs><style>.cls-1{fill:#28245e;}</style></defs><title>icono-autonomia</title><g id="Layer_2" data-name="Layer 2"><g id="Layer_1-2" data-name="Layer 1"><path class="cls-1" d="M25.07,56.88h0a9.95,9.95,0,1,1,3.8-.76A9.8,9.8,0,0,1,25.07,56.88Zm0-17.46a7.52,7.52,0,1,0,0,15h0a7.52,7.52,0,1,0,0-15Z"/><path class="cls-1" d="M31.29,72a3.28,3.28,0,0,1-3-2l-.95-2.28A1.43,1.43,0,0,0,26.17,67H24a1.4,1.4,0,0,0-1.2.74L21.86,70a3.19,3.19,0,0,1-2.93,1.93,3.36,3.36,0,0,1-.89-.13l-.1,0-5.5-2.28a3.17,3.17,0,0,1-1.43-4l1-2.28a1.41,1.41,0,0,0-.33-1.37l-.07-.06-1.43-1.44A1.46,1.46,0,0,0,8.76,60L6.48,61a3.15,3.15,0,0,1-1.19.23,3.33,3.33,0,0,1-2.82-1.57,24.5,24.5,0,0,1-1.38-2.78,26.89,26.89,0,0,1-1-2.95A3.3,3.3,0,0,1,2,50.14l2.27-.94A1.41,1.41,0,0,0,5,48V45.87a1.36,1.36,0,0,0-.73-1.19L2,43.73a3.16,3.16,0,0,1-1.8-3.82l0-.1,2.28-5.5a3.2,3.2,0,0,1,2.8-1.65,3.08,3.08,0,0,1,1.17.22l2.28.95a1.46,1.46,0,0,0,1.37-.32l.06-.07L11.63,32A1.4,1.4,0,0,0,12,30.63L11,28.36a3.3,3.3,0,0,1,1.34-4A22.7,22.7,0,0,1,18.08,22a3.08,3.08,0,0,1,.75-.1,3.3,3.3,0,0,1,3,2l.94,2.28a1.44,1.44,0,0,0,1.15.75h2.18a1.39,1.39,0,0,0,1.19-.74l.94-2.28a3.2,3.2,0,0,1,2.93-1.93,3,3,0,0,1,.89.14l.11,0,5.49,2.28a3.14,3.14,0,0,1,1.43,4l-.94,2.28A1.37,1.37,0,0,0,38.49,32l.07.06L40,33.5a1.45,1.45,0,0,0,1.38.33l2.27-.94a3,3,0,0,1,1.19-.24,3.32,3.32,0,0,1,2.82,1.57A22.42,22.42,0,0,1,49,37,24.14,24.14,0,0,1,50,40a3.3,3.3,0,0,1-1.9,3.78l-2.27.94a1.41,1.41,0,0,0-.75,1.21V48a1.38,1.38,0,0,0,.74,1.2l2.28.94A3.17,3.17,0,0,1,49.93,54l0,.11-2.28,5.49a3.18,3.18,0,0,1-2.8,1.66h0A3.13,3.13,0,0,1,43.64,61l-2.28-1a1.44,1.44,0,0,0-1.36.33l-.07.07-1.44,1.43a1.38,1.38,0,0,0-.32,1.37l.94,2.28a3.28,3.28,0,0,1-1.33,4A25.18,25.18,0,0,1,35,70.91a27.14,27.14,0,0,1-2.94,1A3.22,3.22,0,0,1,31.29,72Zm-5.12-7.44a3.8,3.8,0,0,1,3.4,2.24l.94,2.28a.89.89,0,0,0,.94.47,20.59,20.59,0,0,0,2.61-.89,20.11,20.11,0,0,0,2.48-1.22.87.87,0,0,0,.33-1l-.94-2.28a3.78,3.78,0,0,1,.94-4.11l1.32-1.31A3.83,3.83,0,0,1,41,57.55a3.32,3.32,0,0,1,1.31.25l2.29,1a.78.78,0,0,0,.87-.29l2.17-5.25a.75.75,0,0,0-.41-.82l-2.28-1a3.75,3.75,0,0,1-2.23-3.57V46a3.77,3.77,0,0,1,2.24-3.57l2.28-.95a.88.88,0,0,0,.47-.94,22.67,22.67,0,0,0-.89-2.61,20.11,20.11,0,0,0-1.22-2.48.92.92,0,0,0-1-.33l-2.27.95a3.55,3.55,0,0,1-1.31.24,3.82,3.82,0,0,1-2.8-1.19l-1.32-1.32a3.76,3.76,0,0,1-.94-4.1l.94-2.28a.75.75,0,0,0-.28-.87l-5.26-2.18a.78.78,0,0,0-.82.41l-.94,2.28A3.8,3.8,0,0,1,26,29.31H24.13a3.79,3.79,0,0,1-3.57-2.24l-.94-2.27a.88.88,0,0,0-.94-.48,25.82,25.82,0,0,0-2.62.89,21.25,21.25,0,0,0-2.47,1.22.87.87,0,0,0-.33,1l.94,2.27a3.78,3.78,0,0,1-.94,4.11l-1.33,1.32a3.79,3.79,0,0,1-2.79,1.2,3.4,3.4,0,0,1-1.31-.26l-2.28-.94a.76.76,0,0,0-.87.29L2.5,40.67a.75.75,0,0,0,.42.82l2.28.95A3.76,3.76,0,0,1,7.43,46v1.87a3.75,3.75,0,0,1-2.24,3.57l-2.27,1a.86.86,0,0,0-.47.93,20,20,0,0,0,2.11,5.09.89.89,0,0,0,1,.34l2.28-1a3.51,3.51,0,0,1,1.31-.25,3.86,3.86,0,0,1,2.8,1.19l1.31,1.33a3.75,3.75,0,0,1,.95,4.1l-.95,2.28a.76.76,0,0,0,.29.87L18.8,69.5a.75.75,0,0,0,.81-.42l.95-2.28a3.78,3.78,0,0,1,3.57-2.23h2Z"/><path class="cls-1" d="M54.09,35.81a16.07,16.07,0,0,1-2.15-.14,2.62,2.62,0,0,1-2.2-2.55V31.46a.57.57,0,0,0-.29-.4l-.08,0-1.3-.54-.14,0a.54.54,0,0,0-.34.1l-1.18,1.18a2.62,2.62,0,0,1-3.37.16L43,31.83,40.09,29a2.54,2.54,0,0,1,.16-3.37l1.18-1.18a.58.58,0,0,0,.08-.48l0-.09-.53-1.29a.59.59,0,0,0-.4-.29H38.88a2.62,2.62,0,0,1-2.55-2.2,16.07,16.07,0,0,1-.14-2.15,16.49,16.49,0,0,1,.14-2.16,2.62,2.62,0,0,1,2.55-2.2h1.66a.59.59,0,0,0,.4-.29l0-.08.54-1.3a.58.58,0,0,0-.08-.48l-1.18-1.17a2.55,2.55,0,0,1-.16-3.38l.08-.08L43,3.91a2.59,2.59,0,0,1,3.37.16l1.18,1.17a.54.54,0,0,0,.34.1l.14,0,.09,0,1.29-.52a.61.61,0,0,0,.29-.41V2.69A2.62,2.62,0,0,1,51.94.14a16.58,16.58,0,0,1,4.3,0,2.62,2.62,0,0,1,2.21,2.55V4.36a.59.59,0,0,0,.29.4l.07,0,1.3.54a.34.34,0,0,0,.15,0,.54.54,0,0,0,.33-.1l1.18-1.18a2.62,2.62,0,0,1,3.38-.16l.08.07,2.86,2.88a2.52,2.52,0,0,1-.16,3.37l-1.18,1.18a.58.58,0,0,0-.07.48l0,.08.52,1.29a.59.59,0,0,0,.4.29h1.67a2.62,2.62,0,0,1,2.55,2.21A18.28,18.28,0,0,1,72,17.91a18.28,18.28,0,0,1-.14,2.15,2.63,2.63,0,0,1-2.55,2.21H67.64a.58.58,0,0,0-.4.28l0,.08-.54,1.3a.58.58,0,0,0,.07.48l1.18,1.18A2.52,2.52,0,0,1,68.09,29L68,29l-2.87,2.87a2.62,2.62,0,0,1-3.37-.16l-1.18-1.18a.48.48,0,0,0-.33-.1.4.4,0,0,0-.15,0l-.08,0-1.29.53a.59.59,0,0,0-.29.4v1.66a2.62,2.62,0,0,1-2.21,2.55A16.07,16.07,0,0,1,54.09,35.81Zm-3.83-7a3,3,0,0,1,1.91,2.69v1.66a.23.23,0,0,0,.12.15,14.86,14.86,0,0,0,3.61,0,.23.23,0,0,0,.12-.15V31.46a3,3,0,0,1,1.9-2.69l1.15-.47A2.8,2.8,0,0,1,60.26,28a2.91,2.91,0,0,1,2.05.81L63.49,30h.06v0l2.67-2.66s0-.08,0-.1L65,26.13a3,3,0,0,1-.56-3.25L65,21.74a3,3,0,0,1,2.68-1.9h1.67a.29.29,0,0,0,.14-.13,13.64,13.64,0,0,0,0-3.61.24.24,0,0,0-.14-.12H67.64A3,3,0,0,1,65,14.08l-.48-1.15A3,3,0,0,1,65,9.69l1.18-1.18a.28.28,0,0,0,0-.09L63.59,5.78a.22.22,0,0,0-.1,0L62.31,7a2.87,2.87,0,0,1-2.05.81,3,3,0,0,1-1.19-.25L57.92,7A3,3,0,0,1,56,4.36V2.69s-.08-.14-.13-.14a12.23,12.23,0,0,0-1.8-.12,12.55,12.55,0,0,0-1.8.12s-.12.09-.12.14V4.35A3,3,0,0,1,50.26,7l-1.15.48a2.87,2.87,0,0,1-1.18.25A2.91,2.91,0,0,1,45.87,7L44.7,5.78h-.06l0,0L42,8.42a.14.14,0,0,0,0,.09l1.18,1.18a3,3,0,0,1,.55,3.24l-.47,1.15A3,3,0,0,1,40.54,16H38.88a.22.22,0,0,0-.15.13,15.37,15.37,0,0,0-.11,1.8,15.81,15.81,0,0,0,.11,1.8.24.24,0,0,0,.15.13h1.66a3,3,0,0,1,2.69,1.9l.47,1.15a3,3,0,0,1-.55,3.24L42,27.3a.16.16,0,0,0,0,.1L44.6,30h.1l1.17-1.18A3,3,0,0,1,47.93,28a2.8,2.8,0,0,1,1.19.26Z"/><path class="cls-1" d="M54.09,25a7.11,7.11,0,1,1,7.11-7.1A7.1,7.1,0,0,1,54.09,25Zm0-11.78a4.68,4.68,0,1,0,4.68,4.68A4.69,4.69,0,0,0,54.09,13.23Z"/></g></g></svg>