<?xml version="1.0" encoding="utf-8"?>
<!-- Generator: Adobe Illustrator 24.3.0, SVG Export Plug-In . SVG Version: 6.00 Build 0)  -->
<svg version="1.1" id="Layer_1" xmlns="http://www.w3.org/2000/svg" xmlns:xlink="http://www.w3.org/1999/xlink" x="0px" y="0px"
	 viewBox="0 0 187.7 49.6" style="enable-background:new 0 0 187.7 49.6;" xml:space="preserve">
<style type="text/css">
	.st0{fill:#FF4438;}
	.st1{fill:#61616B;}
</style>
<g>
	<desc>Created with Sketch.</desc>
	<g>
		<g>
			<path class="st0" d="M38.6,32.8c0,0-0.1,0.1-0.1,0.1h-0.2c-0.1,0-0.1,0-0.1-0.1L31,21.9v16.9c0,0.1-0.1,0.2-0.2,0.2H25
				c-0.1,0-0.2-0.1-0.2-0.2v-27c0-0.1,0.1-0.2,0.2-0.2h6.4c0.1,0,0.1,0,0.1,0.1l6.9,11.2l6.9-11.2C41.2,5.4,33.9,1.1,25.6,1.1
				C12.5,1.1,1.9,11.7,1.9,24.8c0,13.1,10.6,23.7,23.7,23.7c8.6,0,16.2-4.6,20.3-11.5V21.8L38.6,32.8z"/>
		</g>
		<path class="st1" d="M60.7,19.1c-1.4,0-2.7,0.1-3.8,0.4c-1.1,0.3-2.2,0.7-3.3,1.2c-0.1,0-0.1,0.1-0.1,0.2l0.9,2.4
			c0,0,0.1,0.1,0.1,0.1c0,0,0.1,0,0.1,0c0.9-0.4,1.8-0.8,2.7-1c0.9-0.3,1.9-0.4,3.1-0.4c1.8,0,3.2,0.4,4.1,1.3
			c1,0.8,1.5,2.1,1.5,3.8v0.4c-0.8-0.2-1.6-0.4-2.5-0.5c-0.9-0.2-2-0.2-3.3-0.2c-1.2,0-2.4,0.1-3.4,0.4c-1,0.3-1.9,0.7-2.7,1.2
			c-0.8,0.5-1.3,1.2-1.8,2c-0.4,0.8-0.6,1.7-0.6,2.8c0,1,0.2,2,0.6,2.7c0.4,0.8,1,1.4,1.7,1.9c0.7,0.5,1.5,0.9,2.4,1.2
			c0.9,0.3,1.8,0.4,2.7,0.4c1.7,0,3.2-0.3,4.4-1c1-0.6,1.8-1.2,2.4-2v2.4c0,0.1,0.1,0.2,0.2,0.2H69c0.1,0,0.2-0.1,0.2-0.2V27
			c0-2.6-0.7-4.6-2.2-5.9C65.5,19.8,63.4,19.1,60.7,19.1z M66.1,30v1.7c0,0.7-0.2,1.4-0.5,2c-0.3,0.6-0.8,1.1-1.3,1.6
			c-0.6,0.4-1.2,0.8-2,1.1c-0.8,0.3-1.6,0.4-2.5,0.4c-0.6,0-1.2-0.1-1.8-0.3c-0.6-0.2-1.1-0.4-1.5-0.7c-0.4-0.3-0.8-0.7-1-1.2
			c-0.2-0.4-0.4-1-0.4-1.6c0-1.2,0.5-2.1,1.4-2.8c0.9-0.7,2.3-1,4.1-1c1.2,0,2.2,0.1,3.1,0.3C64.6,29.7,65.4,29.8,66.1,30z"/>
		<g>
			<path class="st1" d="M78.4,12h-3.3c-0.1,0-0.2,0.1-0.2,0.2v3.2c0,0.1,0.1,0.2,0.2,0.2h3.3c0.1,0,0.2-0.1,0.2-0.2v-3.2
				C78.6,12.1,78.5,12,78.4,12z"/>
			<path class="st1" d="M78.2,19.4h-2.9c-0.1,0-0.2,0.1-0.2,0.2v19.3c0,0.1,0.1,0.2,0.2,0.2h2.9c0.1,0,0.2-0.1,0.2-0.2V19.5
				C78.4,19.5,78.3,19.4,78.2,19.4z"/>
		</g>
		<path class="st1" d="M88,11.4h-2.9c-0.1,0-0.2,0.1-0.2,0.2v27.2c0,0.1,0.1,0.2,0.2,0.2H88c0.1,0,0.2-0.1,0.2-0.2V11.6
			C88.2,11.5,88.1,11.4,88,11.4z"/>
		<path class="st1" d="M111.4,21.6c-0.9-0.9-1.9-1.5-3-2c-1.1-0.5-2.3-0.7-3.4-0.7c-0.9,0-1.7,0.1-2.5,0.4c-0.7,0.2-1.4,0.6-2,1
			c-0.6,0.4-1.2,0.9-1.7,1.4c-0.4,0.4-0.7,0.8-1,1.2V11.6c0-0.1-0.1-0.2-0.2-0.2h-2.9c-0.1,0-0.2,0.1-0.2,0.2v27.2
			c0,0.1,0.1,0.2,0.2,0.2h2.9c0.1,0,0.2-0.1,0.2-0.2v-3.2c0.3,0.4,0.6,0.8,1,1.2c0.5,0.5,1,1,1.7,1.3c0.6,0.4,1.3,0.7,2.1,0.9
			c0.8,0.2,1.6,0.3,2.5,0.3c1.2,0,2.4-0.2,3.5-0.7c1.1-0.5,2.1-1.1,3-2c0.9-0.9,1.6-2,2.1-3.2c0.5-1.3,0.8-2.7,0.8-4.3
			c0-1.6-0.3-3.1-0.8-4.3C113,23.6,112.3,22.5,111.4,21.6z M111.1,29.2c0,1.1-0.2,2.2-0.5,3.1c-0.4,0.9-0.8,1.7-1.4,2.3
			c-0.6,0.6-1.3,1.1-2.1,1.4c-1.6,0.6-3.5,0.7-5.1,0c-0.8-0.3-1.5-0.8-2.2-1.5c-0.6-0.6-1.2-1.4-1.5-2.3c-0.4-0.9-0.6-1.9-0.6-3
			c0-1.1,0.2-2.1,0.6-3c0.4-0.9,0.9-1.7,1.5-2.3c0.6-0.6,1.4-1.1,2.2-1.5c0.8-0.3,1.7-0.5,2.5-0.5c0.9,0,1.7,0.2,2.5,0.5
			c0.8,0.3,1.5,0.8,2.1,1.5c0.6,0.6,1.1,1.4,1.4,2.3C110.9,27.1,111.1,28.1,111.1,29.2z"/>
		<path class="st1" d="M122.6,11.4h-2.9c-0.1,0-0.2,0.1-0.2,0.2v27.2c0,0.1,0.1,0.2,0.2,0.2h2.9c0.1,0,0.2-0.1,0.2-0.2V11.6
			C122.8,11.5,122.7,11.4,122.6,11.4z"/>
		<path class="st1" d="M136.6,19.1c-1.4,0-2.7,0.1-3.8,0.4c-1.1,0.3-2.2,0.7-3.3,1.2c-0.1,0-0.1,0.1-0.1,0.2l0.9,2.4
			c0,0,0.1,0.1,0.1,0.1c0,0,0.1,0,0.1,0c0.9-0.4,1.8-0.8,2.7-1c0.9-0.3,1.9-0.4,3.1-0.4c1.8,0,3.2,0.4,4.1,1.3
			c1,0.8,1.5,2.1,1.5,3.8v0.4c-0.8-0.2-1.6-0.4-2.5-0.5c-0.9-0.2-2-0.2-3.3-0.2c-1.2,0-2.4,0.1-3.4,0.4c-1,0.3-1.9,0.7-2.7,1.2
			c-0.8,0.5-1.3,1.2-1.8,2c-0.4,0.8-0.6,1.7-0.6,2.8c0,1,0.2,2,0.6,2.7c0.4,0.8,1,1.4,1.7,1.9c0.7,0.5,1.5,0.9,2.4,1.2
			c0.9,0.3,1.8,0.4,2.7,0.4c1.7,0,3.2-0.3,4.4-1c1-0.6,1.8-1.2,2.4-2v2.4c0,0.1,0.1,0.2,0.2,0.2h2.8c0.1,0,0.2-0.1,0.2-0.2V27
			c0-2.6-0.7-4.6-2.2-5.9C141.3,19.8,139.3,19.1,136.6,19.1z M132.4,30.3c0.9-0.7,2.3-1,4.1-1c1.2,0,2.2,0.1,3.1,0.3
			c0.9,0.2,1.7,0.3,2.3,0.5v1.7c0,0.7-0.2,1.4-0.5,2c-0.3,0.6-0.8,1.1-1.3,1.6c-0.6,0.4-1.2,0.8-2,1.1c-0.8,0.3-1.6,0.4-2.5,0.4
			c-0.6,0-1.2-0.1-1.8-0.3c-0.6-0.2-1.1-0.4-1.5-0.7c-0.4-0.3-0.8-0.7-1-1.2c-0.2-0.4-0.4-1-0.4-1.6C131,31.9,131.4,31,132.4,30.3z"
			/>
		<path class="st1" d="M162.3,29.5c-0.6-0.4-1.3-0.8-2-1.1c-0.7-0.3-1.5-0.5-2.2-0.7c-0.6-0.2-1.3-0.4-1.9-0.6
			c-0.6-0.2-1.1-0.4-1.6-0.7c-0.4-0.2-0.8-0.5-1-0.8c-0.3-0.3-0.4-0.7-0.4-1.1v-0.1c0-0.7,0.3-1.4,0.9-1.9c0.6-0.5,1.5-0.8,2.6-0.8
			c0.9,0,1.9,0.2,2.8,0.5c1,0.3,1.9,0.8,2.8,1.3c0,0,0.1,0,0.1,0c0,0,0.1,0,0.1-0.1l1.3-2.2c0-0.1,0-0.2-0.1-0.2
			c-1-0.7-2.1-1.2-3.4-1.6c-1.2-0.4-2.5-0.6-3.7-0.6c-1,0-1.9,0.1-2.7,0.4c-0.8,0.3-1.5,0.7-2.1,1.2c-0.6,0.5-1.1,1.1-1.4,1.8
			c-0.3,0.7-0.5,1.5-0.5,2.3v0.1c0,0.9,0.2,1.7,0.6,2.3c0.4,0.6,0.9,1.1,1.5,1.5c0.6,0.4,1.3,0.7,2.1,1c0.8,0.3,1.5,0.5,2.3,0.7
			c0.6,0.2,1.2,0.4,1.8,0.6c0.6,0.2,1.1,0.4,1.5,0.7c0.4,0.2,0.8,0.5,1,0.9c0.2,0.3,0.4,0.7,0.4,1.1v0.1c0,0.9-0.3,1.6-1,2.1
			c-0.7,0.5-1.6,0.8-2.8,0.8c-1.1,0-2.2-0.2-3.4-0.6c-1.1-0.4-2.2-1-3.2-1.8c0,0-0.1,0-0.1,0c0,0-0.1,0-0.1,0.1l-1.5,2.1
			c-0.1,0.1,0,0.2,0,0.2c1.1,0.9,2.4,1.6,3.8,2.1c1.4,0.5,2.9,0.8,4.3,0.8c1,0,1.9-0.1,2.8-0.4c0.9-0.3,1.6-0.7,2.2-1.2
			c0.6-0.5,1.1-1.1,1.5-1.9c0.4-0.7,0.6-1.6,0.6-2.5v-0.1c0-0.9-0.2-1.7-0.6-2.3C163.4,30.5,162.9,29.9,162.3,29.5z"/>
		<path class="st1" d="M179.1,19.4h-5.9v-5.7c0-0.1-0.1-0.2-0.2-0.2h-2.9c-0.1,0-0.2,0.1-0.2,0.2v5.7h-2.5c-0.1,0-0.2,0.1-0.2,0.2
			v2.5c0,0.1,0.1,0.2,0.2,0.2h2.5v11.5c0,1,0.1,1.9,0.4,2.6c0.3,0.7,0.7,1.3,1.2,1.8c0.5,0.5,1.1,0.8,1.8,1c0.7,0.2,1.4,0.3,2.2,0.3
			c0.7,0,1.4-0.1,1.9-0.2c0.6-0.1,1.1-0.4,1.6-0.6c0.1,0,0.1-0.1,0.1-0.2v-2.5c0-0.1,0-0.1-0.1-0.1c-0.1,0-0.1,0-0.2,0
			c-0.5,0.2-0.9,0.4-1.4,0.5c-0.4,0.1-0.9,0.1-1.4,0.1c-0.9,0-1.7-0.2-2.2-0.7c-0.6-0.4-0.8-1.2-0.8-2.4V22.3h5.9
			c0.1,0,0.2-0.1,0.2-0.2v-2.5C179.3,19.5,179.2,19.4,179.1,19.4z"/>
		<g>
			<path class="st1" d="M184.3,16.2c0.1-0.1,0.2-0.1,0.3-0.2c0.1-0.1,0.2-0.3,0.2-0.6c0-0.3-0.1-0.5-0.3-0.7
				c-0.2-0.2-0.5-0.2-0.8-0.2h-1.1c-0.1,0-0.1,0.1-0.1,0.1v2.5c0,0.1,0.1,0.1,0.1,0.1h0.4c0.1,0,0.1-0.1,0.1-0.1v-0.8h0.4l0.7,0.9
				c0,0,0.1,0.1,0.1,0.1h0.5c0,0,0.1,0,0.1-0.1c0,0,0-0.1,0-0.1L184.3,16.2z M184.2,15.4c0,0.1,0,0.2-0.1,0.2
				c-0.1,0.1-0.2,0.1-0.4,0.1h-0.6v-0.6h0.6c0.2,0,0.3,0,0.3,0.1C184.2,15.3,184.2,15.3,184.2,15.4z"/>
			<path class="st1" d="M186,15c-0.1-0.3-0.3-0.6-0.5-0.8c-0.2-0.2-0.5-0.4-0.8-0.6c-0.6-0.3-1.4-0.3-2,0c-0.3,0.1-0.6,0.3-0.8,0.6
				c-0.2,0.2-0.4,0.5-0.5,0.8c-0.1,0.3-0.2,0.6-0.2,1c0,0.3,0.1,0.7,0.2,1c0.1,0.3,0.3,0.6,0.5,0.8c0.2,0.2,0.5,0.4,0.8,0.6
				c0.3,0.1,0.7,0.2,1,0.2c0.4,0,0.7-0.1,1-0.2c0.3-0.1,0.6-0.3,0.8-0.6c0.2-0.2,0.4-0.5,0.5-0.8c0.1-0.3,0.2-0.6,0.2-1
				C186.2,15.6,186.1,15.3,186,15z M185.7,16c0,0.3-0.1,0.6-0.2,0.8c-0.1,0.3-0.3,0.5-0.4,0.7c-0.2,0.2-0.4,0.3-0.7,0.5
				c-0.5,0.2-1.2,0.2-1.7,0c-0.3-0.1-0.5-0.3-0.7-0.5c-0.2-0.2-0.3-0.4-0.4-0.7c-0.1-0.3-0.2-0.5-0.2-0.8c0-0.3,0.1-0.6,0.2-0.8
				c0.1-0.3,0.3-0.5,0.4-0.7c0.2-0.2,0.4-0.3,0.7-0.5c0.3-0.1,0.5-0.2,0.8-0.2c0.3,0,0.6,0.1,0.8,0.2c0.3,0.1,0.5,0.3,0.7,0.5
				c0.2,0.2,0.3,0.4,0.4,0.7C185.6,15.4,185.7,15.7,185.7,16z"/>
		</g>
	</g>
</g>
</svg>
