<?xml version="1.0" encoding="UTF-8"?>
<svg width="178px" height="70px" viewBox="0 0 178 70" version="1.1" xmlns="http://www.w3.org/2000/svg" xmlns:xlink="http://www.w3.org/1999/xlink">
    <!-- Generator: Sketch 42 (36781) - http://www.bohemiancoding.com/sketch -->
    <title>Page 1</title>
    <desc>Created with Sketch.</desc>
    <defs>
        <polygon id="path-1" points="36.0374 64 0.5244 64 0.5244 0.6972 36.0374 0.6972"></polygon>
        <polygon id="path-3" points="0 57.8851 0 0.1061 38.2945 0.1061 38.2945 57.8851 1.79749878e-15 57.8851"></polygon>
    </defs>
    <g id="Page-1" stroke="none" stroke-width="1" fill="none" fill-rule="evenodd">
        <g id="Desktop-HD" transform="translate(-631.000000, -477.000000)">
            <g id="Page-1" transform="translate(631.000000, 477.000000)">
                <path d="M38.2946,2.1785 C43.6456,2.3905 48.6686,3.8765 53.0686,6.3425 C61.2586,9.8635 67.7356,16.6065 70.9066,24.9765 C67.3266,10.6295 54.3566,0.0005 38.9016,0.0005 C34.5536,0.0005 25.7976,0.0005 16.1956,6.3425 C18.2606,5.9365 30.8026,1.7515 32.9866,1.7515 C34.7936,1.7515 36.5666,1.8985 38.2946,2.1785" id="Fill-1" fill="#EB3E24"></path>
                <g id="Group-5" transform="translate(37.000000, 5.645100)">
                    <mask id="mask-2" fill="white">
                        <use xlink:href="#path-1"></use>
                    </mask>
                    <g id="Clip-4"></g>
                    <path d="M33.9064,19.3312 C30.7354,10.9612 24.2594,4.2182 16.0684,0.6972 C26.1434,6.3432 32.9544,17.1212 32.9544,29.4912 C32.9544,37.4422 30.1404,44.7352 25.4554,50.4322 C23.6104,52.6742 21.4764,54.6692 19.1084,56.3592 C13.9934,60.6242 7.5684,63.3712 0.5244,63.9042 C1.3584,63.9672 2.2004,64.0002 3.0504,64.0002 C21.2684,64.0002 36.0374,49.2312 36.0374,31.0132 C36.0374,26.8992 35.2824,22.9632 33.9064,19.3312" id="Fill-3" fill="#00B4B7" mask="url(#mask-2)"></path>
                </g>
                <path d="M15.8569,9.7908 C15.3689,10.1398 14.8909,10.5018 14.4229,10.8758 C14.0779,11.2578 13.7409,11.6478 13.4129,12.0458 C14.1899,11.2538 15.0049,10.5008 15.8569,9.7908" id="Fill-6" fill="#B32527"></path>
                <path d="M15.8569,9.7908 C15.3689,10.1398 14.8909,10.5018 14.4229,10.8758 C14.0779,11.2578 13.7409,11.6478 13.4129,12.0458 C14.1899,11.2538 15.0049,10.5008 15.8569,9.7908" id="Fill-8" fill="#EC3F24"></path>
                <path d="M15.8569,9.7908 C15.3689,10.1398 14.8909,10.5018 14.4229,10.8758 C14.0779,11.2578 13.7409,11.6478 13.4129,12.0458 C14.1899,11.2538 15.0049,10.5008 15.8569,9.7908" id="Fill-10" fill="#EB3E24"></path>
                <polygon id="Fill-12" fill="#FFFFFF" points="19.3232 41.28 16.4302 41.28 11.2372 32.639 11.0592 32.639 11.1382 41.28 8.6812 41.28 8.7012 28.517 11.5942 28.517 16.7862 37.158 16.9652 37.158 16.8852 28.478 19.3822 28.478"></polygon>
                <path d="M28.7956,39.2786 C28.7816,39.4346 28.6176,41.2796 28.6176,41.2796 L20.6106,41.2796 L20.6106,28.5176 L28.6966,28.5176 C28.7886,28.5176 28.8676,28.6096 28.8546,28.7356 C28.8426,28.8616 28.6566,30.7366 28.6566,30.7366 L23.3056,30.6576 L23.2466,33.7296 C23.2466,33.7296 27.4616,33.7106 27.5276,33.7106 C27.5936,33.7106 27.6986,33.7666 27.6856,33.9076 C27.6736,34.0496 27.5076,35.9096 27.5076,35.9096 L23.2066,35.8696 L23.1876,37.2376 L23.1386,39.1596 L25.4856,39.1796 C25.4856,39.1796 28.5766,39.0636 28.6366,39.0606 C28.6976,39.0586 28.8096,39.1236 28.7956,39.2786" id="Fill-14" fill="#FFFFFF"></path>
                <polygon id="Fill-16" fill="#FFFFFF" points="38.6845 30.737 35.4935 30.618 35.5135 41.28 32.8185 41.28 32.8585 30.618 29.6275 30.737 29.4495 30.519 29.6275 28.517 38.6845 28.517 38.8425 28.736"></polygon>
                <polygon id="Fill-18" fill="#FFFFFF" points="52.3786 41.28 52.0416 37.416 51.2686 30.401 51.1496 30.401 47.2856 39.755 46.3536 39.755 42.6286 30.401 42.5096 30.401 41.7366 37.356 41.3596 41.28 40.4486 41.28 41.8156 28.616 42.9846 28.616 43.6986 30.559 46.8096 38.387 46.9086 38.387 50.1986 30.401 50.8726 28.616 52.0416 28.616 53.3296 41.28"></polygon>
                <polygon id="Fill-20" fill="#FFFFFF" points="65.3984 41.28 64.1304 41.28 63.6154 40.388 60.2654 35.513 56.8574 40.448 56.3814 41.28 55.2324 41.28 59.6514 34.8 55.4504 28.616 56.7184 28.616 57.2134 29.468 60.3254 34.007 63.3974 29.509 63.8924 28.616 65.0624 28.616 60.9394 34.7"></polygon>
                <polygon id="Fill-22" fill="#FFFFFF" points="84.1909 39.969 84.2829 39.969 86.3449 33.597 86.6239 32.631 87.5899 32.631 87.7939 33.561 89.5959 39.969 89.6879 39.969 91.7689 33.597 92.0289 32.631 92.9209 32.631 90.0599 41.083 89.1119 41.083 87.1059 33.95 86.9939 33.95 84.6729 41.083 83.7069 41.083 81.2739 32.669 82.1659 32.575 82.3889 33.561"></polygon>
                <path d="M98.9291,33.8288 C98.5641,33.4388 98.0651,33.2448 97.4341,33.2448 C96.7281,33.2448 96.1401,33.4768 95.6701,33.9408 C95.1991,34.4048 94.8951,35.0528 94.7601,35.8818 L99.4411,35.7518 L99.4771,35.5108 C99.4771,34.7798 99.2941,34.2188 98.9291,33.8288 M99.5991,33.3468 C100.0991,33.8978 100.3511,34.6498 100.3511,35.6038 L100.3131,36.3098 L100.0911,36.4948 L94.6841,36.5878 L94.6841,36.8858 C94.6841,37.9748 94.9231,38.8318 95.4001,39.4568 C95.8771,40.0828 96.5621,40.3948 97.4531,40.3948 C98.3321,40.3948 99.1251,40.1168 99.8311,39.5588 L99.9791,39.6158 L99.8671,40.4508 C99.0991,40.9468 98.2691,41.1948 97.3781,41.1948 C96.2511,41.1948 95.3691,40.8128 94.7321,40.0518 C94.0941,39.2908 93.7741,38.2528 93.7741,36.9398 C93.7741,35.5788 94.1121,34.5018 94.7861,33.7088 C95.4621,32.9158 96.3691,32.5188 97.5081,32.5188 C98.3991,32.5188 99.0971,32.7958 99.5991,33.3468" id="Fill-24" fill="#FFFFFF"></path>
                <path d="M107.947,39.5134 C108.48,38.8744 108.745,37.9564 108.745,36.7554 C108.745,35.6784 108.538,34.8424 108.123,34.2464 C107.708,33.6524 107.123,33.3554 106.368,33.3554 C105.451,33.3554 104.597,33.8324 103.804,34.7864 L103.786,37.4054 L103.824,39.9494 C104.505,40.2964 105.135,40.4694 105.718,40.4694 C106.672,40.4694 107.414,40.1514 107.947,39.5134 M108.821,33.6164 C109.377,34.3334 109.656,35.3374 109.656,36.6244 C109.656,38.0734 109.303,39.2014 108.597,40.0054 C107.891,40.8114 106.907,41.2134 105.644,41.2134 C105.025,41.2134 104.393,41.0944 103.75,40.8604 L103.062,41.1944 L102.876,41.0824 L102.95,37.4974 L102.895,28.1364 L103.842,28.0444 L103.804,33.8384 L103.898,33.8384 C104.653,33.0954 105.5,32.6624 106.443,32.5384 C107.47,32.5384 108.263,32.8974 108.821,33.6164" id="Fill-26" fill="#FFFFFF"></path>
                <path d="M119.3703,32.9289 L119.2223,33.7269 L119.0563,33.7649 C118.4733,33.4309 117.9093,33.2629 117.3643,33.2629 C116.8563,33.2629 116.4413,33.4059 116.1203,33.6909 C115.7983,33.9749 115.6373,34.3229 115.6373,34.7309 C115.6373,35.1269 115.7873,35.4399 116.0833,35.6679 C116.3803,35.8969 116.8333,36.1489 117.4383,36.4199 C117.9343,36.6559 118.3223,36.8609 118.6003,37.0339 C118.8783,37.2069 119.1203,37.4369 119.3243,37.7209 C119.5283,38.0059 119.6313,38.3519 119.6313,38.7619 C119.6313,39.1939 119.5163,39.5969 119.2883,39.9689 C119.0573,40.3389 118.7273,40.6369 118.2943,40.8609 C117.8603,41.0829 117.3583,41.1949 116.7883,41.1949 C115.9593,41.1949 115.1843,40.9909 114.4673,40.5809 L114.5973,39.7449 L114.7273,39.6709 C115.3703,40.2039 116.0763,40.4689 116.8443,40.4689 C117.4143,40.4689 117.8733,40.3149 118.2203,40.0049 C118.5653,39.6959 118.7403,39.3309 118.7403,38.9089 C118.7403,38.5259 118.5973,38.2199 118.3123,37.9899 C118.0273,37.7609 117.5813,37.5049 116.9743,37.2199 C116.4923,36.9959 116.1023,36.7919 115.8053,36.6059 C115.5073,36.4199 115.2573,36.1799 115.0533,35.8819 C114.8473,35.5839 114.7453,35.2259 114.7453,34.8039 C114.7453,34.1479 114.9943,33.6069 115.4893,33.1789 C115.9843,32.7529 116.6413,32.5389 117.4583,32.5389 C118.1133,32.5389 118.7513,32.6689 119.3703,32.9289" id="Fill-28" fill="#FFFFFF"></path>
                <path d="M123.0673,34.1545 C122.5833,34.7735 122.3413,35.6465 122.3413,36.7735 C122.3413,37.9615 122.5753,38.8745 123.0393,39.5135 C123.5033,40.1515 124.1563,40.4685 124.9983,40.4685 C125.8773,40.4685 126.5583,40.1635 127.0423,39.5505 C127.5243,38.9375 127.7663,38.0675 127.7663,36.9405 C127.7663,35.7525 127.5313,34.8355 127.0603,34.1925 C126.5893,33.5475 125.9333,33.2245 125.0913,33.2245 C124.2233,33.2245 123.5493,33.5355 123.0673,34.1545 M127.7383,33.6245 C128.3633,34.3755 128.6763,35.4185 128.6763,36.7555 C128.6763,38.1545 128.3483,39.2435 127.6923,40.0235 C127.0353,40.8045 126.1253,41.1945 124.9613,41.1945 C123.8473,41.1945 122.9803,40.8195 122.3613,40.0715 C121.7413,39.3215 121.4323,38.2845 121.4323,36.9595 C121.4323,35.5595 121.7573,34.4665 122.4073,33.6805 C123.0573,32.8945 123.9633,32.5015 125.1293,32.5015 C126.2423,32.5015 127.1133,32.8765 127.7383,33.6245" id="Fill-30" fill="#FFFFFF"></path>
                <polygon id="Fill-32" fill="#FFFFFF" points="132.299 41.0828 131.351 41.0828 131.407 37.4618 131.351 28.1358 132.317 28.0438 132.243 37.4058"></polygon>
                <path d="M142.1987,40.3391 C142.4087,40.3391 142.6377,40.2781 142.8857,40.1551 L143.0167,40.2471 L142.9047,40.8601 C142.6087,41.0451 142.2927,41.1451 141.9567,41.1571 C141.2397,41.1321 140.8547,40.6681 140.8047,39.7631 L140.6947,39.7631 C139.8527,40.6061 138.9787,41.0761 138.0757,41.1751 C137.2577,41.1751 136.6327,40.9561 136.1997,40.5171 C135.7657,40.0781 135.5547,39.4541 135.5677,38.6501 L135.5857,36.6241 L135.5487,32.7051 L136.5157,32.5951 L136.4597,38.4641 C136.4467,39.0571 136.5837,39.5201 136.8677,39.8471 C137.1527,40.1761 137.5607,40.3391 138.0937,40.3391 C138.9717,40.3391 139.8457,39.8751 140.7127,38.9471 L140.7127,32.7051 L141.6407,32.5951 L141.5867,39.4291 C141.5867,40.0361 141.7907,40.3391 142.1987,40.3391" id="Fill-34" fill="#FFFFFF"></path>
                <path d="M148.829,39.9133 L148.941,40.0053 L148.849,40.6753 C148.228,40.9963 147.672,41.1633 147.177,41.1753 C145.913,41.0273 145.282,40.2603 145.282,38.8733 L145.32,37.2003 L145.3,33.3373 L144.148,33.3373 L144.074,33.2453 L144.148,32.6493 L145.3,32.6493 L145.3,30.9593 L146.118,30.6253 L146.229,30.7173 L146.211,32.6493 L148.905,32.6493 L148.979,32.7433 L148.905,33.3373 L146.211,33.3373 L146.155,38.7793 C146.155,39.8193 146.581,40.3393 147.437,40.3393 C147.87,40.3393 148.334,40.1983 148.829,39.9133" id="Fill-36" fill="#FFFFFF"></path>
                <path d="M151.8203,41.0828 L150.8723,41.0828 L150.9283,37.4618 L150.8723,32.7058 L151.8383,32.5948 L151.7643,37.4058 L151.8203,41.0828 Z M151.9863,29.6598 C151.9863,30.0928 151.7763,30.3098 151.3543,30.3098 C150.9463,30.3098 150.7423,30.1058 150.7423,29.6958 C150.7423,29.4988 150.7983,29.3408 150.9083,29.2238 C151.0203,29.1048 151.1753,29.0458 151.3743,29.0458 C151.7823,29.0458 151.9863,29.2498 151.9863,29.6598 L151.9863,29.6598 Z" id="Fill-38" fill="#FFFFFF"></path>
                <path d="M156.0551,34.1545 C155.5711,34.7735 155.3291,35.6465 155.3291,36.7735 C155.3291,37.9615 155.5631,38.8745 156.0271,39.5135 C156.4911,40.1515 157.1441,40.4685 157.9871,40.4685 C158.8651,40.4685 159.5461,40.1635 160.0301,39.5505 C160.5121,38.9375 160.7541,38.0675 160.7541,36.9405 C160.7541,35.7525 160.5191,34.8355 160.0481,34.1925 C159.5771,33.5475 158.9211,33.2245 158.0791,33.2245 C157.2121,33.2245 156.5371,33.5355 156.0551,34.1545 M160.7261,33.6245 C161.3511,34.3755 161.6641,35.4185 161.6641,36.7555 C161.6641,38.1545 161.3361,39.2435 160.6801,40.0235 C160.0241,40.8045 159.1141,41.1945 157.9491,41.1945 C156.8351,41.1945 155.9681,40.8195 155.3491,40.0715 C154.7291,39.3215 154.4201,38.2845 154.4201,36.9595 C154.4201,35.5595 154.7451,34.4665 155.3951,33.6805 C156.0451,32.8945 156.9521,32.5015 158.1171,32.5015 C159.2311,32.5015 160.1011,32.8765 160.7261,33.6245" id="Fill-40" fill="#FFFFFF"></path>
                <path d="M169.196,33.8484 C168.893,33.5194 168.464,33.3554 167.906,33.3554 C166.977,33.3554 166.067,33.8694 165.175,34.8984 L165.157,37.4054 L165.213,41.0824 L164.247,41.0824 L164.303,37.4614 L164.265,32.7054 L165.175,32.5954 L165.175,33.9504 L165.269,33.9504 C166.147,33.0954 167.021,32.6194 167.888,32.5194 C168.742,32.5194 169.398,32.7394 169.856,33.1794 C170.315,33.6184 170.537,34.2424 170.525,35.0464 L170.506,37.4234 L170.543,41.0824 L169.578,41.0824 L169.634,35.2324 C169.645,34.6364 169.5,34.1764 169.196,33.8484" id="Fill-42" fill="#FFFFFF"></path>
                <path d="M177.6559,32.9289 L177.5079,33.7269 L177.3419,33.7649 C176.7599,33.4309 176.1949,33.2629 175.6509,33.2629 C175.1419,33.2629 174.7279,33.4059 174.4069,33.6909 C174.0839,33.9749 173.9229,34.3229 173.9229,34.7309 C173.9229,35.1269 174.0729,35.4399 174.3689,35.6679 C174.6669,35.8969 175.1189,36.1489 175.7249,36.4199 C176.2199,36.6559 176.6079,36.8609 176.8859,37.0339 C177.1639,37.2069 177.4059,37.4369 177.6099,37.7209 C177.8139,38.0059 177.9179,38.3519 177.9179,38.7619 C177.9179,39.1939 177.8019,39.5969 177.5739,39.9689 C177.3439,40.3389 177.0129,40.6369 176.5799,40.8609 C176.1459,41.0829 175.6439,41.1949 175.0749,41.1949 C174.2449,41.1949 173.4699,40.9909 172.7529,40.5809 L172.8829,39.7449 L173.0129,39.6709 C173.6559,40.2039 174.3619,40.4689 175.1309,40.4689 C175.6999,40.4689 176.1589,40.3149 176.5059,40.0049 C176.8519,39.6959 177.0259,39.3309 177.0259,38.9089 C177.0259,38.5259 176.8829,38.2199 176.5979,37.9899 C176.3129,37.7609 175.8679,37.5049 175.2599,37.2199 C174.7789,36.9959 174.3889,36.7919 174.0909,36.6059 C173.7929,36.4199 173.5429,36.1799 173.3389,35.8819 C173.1329,35.5839 173.0309,35.2259 173.0309,34.8039 C173.0309,34.1479 173.2799,33.6069 173.7749,33.1789 C174.2699,32.7529 174.9269,32.5389 175.7439,32.5389 C176.3989,32.5389 177.0379,32.6689 177.6559,32.9289" id="Fill-44" fill="#FFFFFF"></path>
                <g id="Group-48" transform="translate(0.000000, 1.645100)">
                    <mask id="mask-4" fill="white">
                        <use xlink:href="#path-3"></use>
                    </mask>
                    <g id="Clip-47"></g>
                    <path d="M32.9865,0.1061 C30.8025,0.1061 28.6685,0.3201 26.6035,0.7261 C11.4405,3.6991 -0.0005,17.0591 -0.0005,33.0931 C-0.0005,42.9741 4.3465,51.8391 11.2295,57.8851 C5.5215,51.9551 2.0105,43.8951 2.0105,35.0131 C2.0105,24.5781 6.8585,15.2751 14.4235,9.2311 C14.8915,8.8561 15.3685,8.4941 15.8565,8.1461 C21.5775,3.3761 28.9365,0.5041 36.9675,0.5041 C37.4125,0.5041 37.8545,0.5161 38.2945,0.5331 C36.5665,0.2531 34.7935,0.1061 32.9865,0.1061" id="Fill-46" fill="#027F80" mask="url(#mask-4)"></path>
                </g>
                <path d="M36.9675,68.1228 C35.1605,68.1228 33.3875,67.9758 31.6595,67.6958 C28.9665,67.2598 26.3825,66.4988 23.9495,65.4528 C12.2055,60.4028 3.9805,48.7308 3.9805,35.1358 C3.9805,26.1448 7.5795,17.9968 13.4135,12.0468 C13.7405,11.6478 14.0775,11.2578 14.4225,10.8758 C6.8585,16.9198 2.0105,26.2228 2.0105,36.6588 C2.0105,45.5398 5.5215,53.5998 11.2295,59.5298 C17.2305,65.7648 25.6605,69.6448 34.9975,69.6448 C35.8475,69.6448 36.6895,69.6128 37.5245,69.5498 C44.5685,69.0158 50.9935,66.2688 56.1085,62.0038 C50.7105,65.8558 44.1045,68.1228 36.9675,68.1228" id="Fill-49" fill="#EF6C24"></path>
            </g>
        </g>
    </g>
</svg>