<svg width="207" height="62" viewBox="0 0 207 62" fill="none" xmlns="http://www.w3.org/2000/svg">
<g clip-path="url(#clip0)">
<path d="M82.6999 1.9C87.3999 2.1 91.9 3.4 95.8 5.6C103 8.7 108.8 14.7 111.6 22.1C108.4 9.4 96.9 0 83.3 0C79.5 0 71.7 0 63.2 5.6C65 5.2 76.1 1.5 78 1.5C79.6 1.5 81.1999 1.7 82.6999 1.9Z" fill="#EC3F24"/>
<path d="M111.6 22.1001C108.8 14.7001 103.1 8.7001 95.8 5.6001C104.7 10.6001 110.7 20.1001 110.7 31.1001C110.7 38.1001 108.2 44.6001 104.1 49.6001C102.5 51.6001 100.6 53.3001 98.5 54.8001C94 58.6001 88.3 61.0001 82 61.5001C82.7 61.6001 83.5 61.6001 84.2 61.6001C100.3 61.6001 113.4 48.5001 113.4 32.4001C113.4 28.8001 112.8 25.3001 111.6 22.1001Z" fill="#00B6B8"/>
<path d="M62.9 8.7002C62.5 9.0002 61.9999 9.3002 61.5999 9.7002C61.2999 10.0002 61 10.4002 60.7 10.7002C61.4 10.0002 62.1 9.3002 62.9 8.7002Z" fill="#B42628"/>
<path d="M62.9 8.7002C62.5 9.0002 61.9999 9.3002 61.5999 9.7002C61.2999 10.0002 61 10.4002 60.7 10.7002C61.4 10.0002 62.1 9.3002 62.9 8.7002Z" fill="#EC4024"/>
<path d="M62.9 8.7002C62.5 9.0002 61.9999 9.3002 61.5999 9.7002C61.2999 10.0002 61 10.4002 60.7 10.7002C61.4 10.0002 62.1 9.3002 62.9 8.7002Z" fill="#EC3F24"/>
<path d="M66 36.5001H63.4L58.8 28.9001H58.6L58.7 36.5001H56.5V25.2001H59.1L63.7 32.8001H63.9L63.8 25.1001H66V36.5001Z" fill="white"/>
<path d="M74.3 34.7002C74.3 34.8002 74.1 36.5002 74.1 36.5002H67V25.2002H74.1C74.1 25.2002 74.3 25.3002 74.2 25.4002C74.1 25.5002 74 27.2002 74 27.2002L69.3 27.1002L69.2 29.8002C69.2 29.8002 72.9 29.8002 73 29.8002C73.1 29.8002 73.2 29.9002 73.1 30.0002C73.1 30.1002 72.9 31.8002 72.9 31.8002H69.1V33.0002V34.7002H71.2C71.2 34.7002 73.9 34.6002 74 34.6002C74.2 34.5002 74.3 34.6002 74.3 34.7002Z" fill="white"/>
<path d="M83.0999 27.2002L80.2999 27.1002V36.5002H77.8999V27.1002L74.9999 27.2002L74.8999 27.0002L75.0999 25.2002H83.0999L83.1999 25.4002L83.0999 27.2002Z" fill="white"/>
<path d="M95.2 36.5002L94.9 33.1002L94.2 26.9002H94.1L90.7 35.2002H89.9L86.6 26.9002H86.5L85.8 33.0002L85.5 36.5002H84.7L85.9 25.3002H86.9L87.5 27.0002L90.3 33.9002H90.4L93.3 26.8002L93.9 25.2002H94.9L96 36.5002H95.2Z" fill="white"/>
<path d="M106.7 36.5003H105.6L105.1 35.7003L102.1 31.4003L99.1 35.8003L98.7 36.5003H97.7L101.6 30.8003L97.9 25.3003H99L99.4 26.1003L102.2 30.1003L104.9 26.1003L105.3 25.3003H106.3L102.7 30.7003L106.7 36.5003Z" fill="white"/>
<path d="M123.3 35.2998L125.2 29.6998L125.4 28.7998H126.3L126.5 29.5998L128.1 35.2998H128.2L130 29.6998L130.2 28.7998H131L128.5 36.2998H127.7L125.9 29.9998H125.8L123.7 36.2998H122.8L120.6 28.8998L121.4 28.7998L121.6 29.6998L123.3 35.2998Z" fill="white"/>
<path d="M136.9 29.4997C137.3 29.9997 137.6 30.6997 137.6 31.4997V32.0997L137.4 32.2997L132.6 32.3997V32.6997C132.6 33.6997 132.8 34.3997 133.2 34.9997C133.6 35.5997 134.2 35.7997 135 35.7997C135.8 35.7997 136.5 35.5997 137.1 35.0997H137.2L137.1 35.7997C136.4 36.1997 135.7 36.4997 134.9 36.4997C133.9 36.4997 133.1 36.1997 132.6 35.4997C132 34.7997 131.8 33.8997 131.8 32.6997C131.8 31.4997 132.1 30.4997 132.7 29.7997C133.3 29.0997 134.1 28.6997 135.1 28.6997C135.9 28.7997 136.5 28.9997 136.9 29.4997ZM136.3 29.8997C136 29.5997 135.5 29.3997 135 29.3997C134.4 29.3997 133.9 29.5997 133.4 29.9997C132.9 30.3997 132.7 30.9997 132.6 31.6997L136.7 31.5997V31.3997C136.8 30.7997 136.7 30.2997 136.3 29.8997Z" fill="white"/>
<path d="M145.1 29.6998C145.6 30.2998 145.8 31.1998 145.8 32.3998C145.8 33.6998 145.5 34.6998 144.9 35.3998C144.3 36.0998 143.4 36.4998 142.3 36.4998C141.8 36.4998 141.2 36.3998 140.6 36.1998L140 36.4998L139.8 36.3998L139.9 33.1998V24.8998L140.7 24.7998V29.8998H140.8C141.5 29.1998 142.2 28.8998 143.1 28.7998C143.9 28.7998 144.6 29.0998 145.1 29.6998ZM144.3 34.8998C144.8 34.2998 145 33.4998 145 32.4998C145 31.4998 144.8 30.7998 144.5 30.2998C144.1 29.7998 143.6 29.4998 142.9 29.4998C142.1 29.4998 141.3 29.8998 140.6 30.7998V33.0998V35.2998C141.2 35.5998 141.8 35.7998 142.3 35.7998C143.2 35.7998 143.8 35.4998 144.3 34.8998Z" fill="white"/>
<path d="M154.4 29.0998L154.3 29.7998H154.2C153.7 29.4998 153.2 29.3998 152.7 29.3998C152.3 29.3998 151.9 29.4998 151.6 29.7998C151.3 30.0998 151.2 30.3998 151.2 30.6998C151.2 31.0998 151.3 31.2998 151.6 31.4998C151.9 31.6998 152.3 31.8998 152.8 32.1998C153.2 32.3998 153.6 32.5998 153.8 32.6998C154 32.8998 154.3 33.0998 154.4 33.2998C154.6 33.5998 154.7 33.8998 154.7 34.1998C154.7 34.5998 154.6 34.8998 154.4 35.2998C154.2 35.5998 153.9 35.8998 153.5 36.0998C153.1 36.2998 152.7 36.3998 152.2 36.3998C151.5 36.3998 150.8 36.1998 150.1 35.8998L150.2 35.1998L150.3 35.0998C150.9 35.5998 151.5 35.7998 152.2 35.7998C152.7 35.7998 153.1 35.6998 153.4 35.3998C153.7 35.0998 153.9 34.7998 153.9 34.3998C153.9 34.0998 153.8 33.7998 153.5 33.5998C153.2 33.3998 152.9 33.1998 152.3 32.8998C151.9 32.6998 151.5 32.4998 151.3 32.3998C151 32.1998 150.8 31.9998 150.6 31.7998C150.4 31.4998 150.3 31.1998 150.3 30.7998C150.3 30.1998 150.5 29.6998 151 29.3998C151.4 28.9998 152 28.7998 152.7 28.7998C153.3 28.7998 153.9 28.8998 154.4 29.0998Z" fill="white"/>
<path d="M161.8 29.6997C162.4 30.3997 162.6 31.2997 162.6 32.4997C162.6 33.6997 162.3 34.6997 161.7 35.3997C161.1 36.0997 160.3 36.3997 159.3 36.3997C158.3 36.3997 157.5 36.0997 157 35.3997C156.5 34.6997 156.2 33.7997 156.2 32.5997C156.2 31.3997 156.5 30.3997 157.1 29.6997C157.7 28.9997 158.5 28.6997 159.5 28.6997C160.5 28.6997 161.3 29.0997 161.8 29.6997ZM157.7 30.1997C157.3 30.6997 157.1 31.4997 157.1 32.4997C157.1 33.5997 157.3 34.3997 157.7 34.8997C158.1 35.3997 158.7 35.6997 159.4 35.6997C160.2 35.6997 160.8 35.3997 161.2 34.8997C161.6 34.3997 161.8 33.5997 161.8 32.5997C161.8 31.4997 161.6 30.6997 161.2 30.1997C160.8 29.5997 160.2 29.2997 159.5 29.2997C158.7 29.3997 158.1 29.6997 157.7 30.1997Z" fill="white"/>
<path d="M165.8 36.2998H165V33.0998V24.8998L165.9 24.7998L165.8 33.0998V36.2998Z" fill="white"/>
<path d="M174.6 35.6997C174.8 35.6997 175 35.5997 175.2 35.4997L175.3 35.5997L175.2 36.0997C174.9 36.2997 174.7 36.3997 174.4 36.3997C173.8 36.3997 173.4 35.9997 173.4 35.1997H173.3C172.6 35.8997 171.8 36.3997 171 36.3997C170.3 36.3997 169.7 36.1997 169.3 35.7997C168.9 35.3997 168.7 34.8997 168.7 34.0997V32.2997V28.7997L169.6 28.6997V33.8997C169.6 34.3997 169.7 34.7997 170 35.0997C170.3 35.3997 170.6 35.4997 171.1 35.4997C171.9 35.4997 172.6 35.0997 173.4 34.2997V28.7997L174.2 28.6997V34.6997C174.1 35.3997 174.2 35.6997 174.6 35.6997Z" fill="white"/>
<path d="M180.5 35.2996V35.9996C180 36.2996 179.5 36.3996 179 36.3996C177.9 36.2996 177.3 35.5996 177.3 34.3996V32.8996V29.4996H176.3L176.2 29.3996L176.3 28.8996H177.3V27.3996L178 27.0996L178.1 27.1996V28.8996H180.5L180.6 28.9996L180.5 29.4996H178.1V34.2996C178.1 35.1996 178.5 35.6996 179.2 35.6996C179.6 35.6996 180 35.4996 180.5 35.2996Z" fill="white"/>
<path d="M183.2 26.1997C183.2 26.5997 183 26.7997 182.6 26.7997C182.2 26.7997 182.1 26.5997 182.1 26.2997C182.1 26.0997 182.1 25.9997 182.2 25.8997C182.3 25.7997 182.4 25.6997 182.6 25.6997C183.1 25.6997 183.2 25.8997 183.2 26.1997ZM183.1 36.2997H182.3V33.0997V28.8997L183.2 28.7997L183.1 33.0997V36.2997Z" fill="white"/>
<path d="M191 29.6997C191.6 30.3997 191.8 31.2997 191.8 32.4997C191.8 33.6997 191.5 34.6997 190.9 35.3997C190.3 36.0997 189.5 36.3997 188.5 36.3997C187.5 36.3997 186.7 36.0997 186.2 35.3997C185.7 34.6997 185.4 33.7997 185.4 32.5997C185.4 31.3997 185.7 30.3997 186.3 29.6997C186.9 28.9997 187.7 28.6997 188.7 28.6997C189.7 28.6997 190.4 29.0997 191 29.6997ZM186.8 30.1997C186.4 30.6997 186.2 31.4997 186.2 32.4997C186.2 33.5997 186.4 34.3997 186.8 34.8997C187.2 35.3997 187.8 35.6997 188.5 35.6997C189.3 35.6997 189.9 35.3997 190.3 34.8997C190.7 34.3997 190.9 33.5997 190.9 32.5997C190.9 31.4997 190.7 30.6997 190.3 30.1997C189.9 29.5997 189.3 29.2997 188.6 29.2997C187.9 29.3997 187.3 29.6997 186.8 30.1997Z" fill="white"/>
<path d="M198.5 29.8997C198.2 29.5997 197.9 29.4997 197.4 29.4997C196.6 29.4997 195.8 29.9997 195 30.8997V33.0997V36.3997H194.1V33.1997V28.9997L194.9 28.8997V29.9997H195C195.8 29.1997 196.5 28.7997 197.3 28.6997C198.1 28.6997 198.6 28.8997 199 29.2997C199.4 29.6997 199.6 30.1997 199.6 30.9997V33.0997V36.2997H198.7V31.0997C198.9 30.5997 198.7 30.1997 198.5 29.8997Z" fill="white"/>
<path d="M205.9 29.0998L205.8 29.7998H205.7C205.2 29.4998 204.7 29.3998 204.2 29.3998C203.8 29.3998 203.4 29.4998 203.1 29.7998C202.8 30.0998 202.7 30.3998 202.7 30.6998C202.7 31.0998 202.8 31.2998 203.1 31.4998C203.4 31.6998 203.8 31.8998 204.3 32.1998C204.7 32.3998 205.1 32.5998 205.3 32.6998C205.5 32.8998 205.8 33.0998 205.9 33.2998C206.1 33.5998 206.2 33.8998 206.2 34.1998C206.2 34.5998 206.1 34.8998 205.9 35.2998C205.7 35.5998 205.4 35.8998 205 36.0998C204.6 36.2998 204.2 36.3998 203.7 36.3998C203 36.3998 202.3 36.1998 201.6 35.8998L201.7 35.1998L201.8 35.0998C202.4 35.5998 203 35.7998 203.7 35.7998C204.2 35.7998 204.6 35.6998 204.9 35.3998C205.2 35.0998 205.4 34.7998 205.4 34.3998C205.4 34.0998 205.3 33.7998 205 33.5998C204.7 33.3998 204.4 33.1998 203.8 32.8998C203.4 32.6998 203 32.4998 202.8 32.3998C202.5 32.1998 202.3 31.9998 202.1 31.7998C201.9 31.4998 201.8 31.1998 201.8 30.7998C201.8 30.1998 202 29.6998 202.5 29.3998C202.9 28.9998 203.5 28.7998 204.2 28.7998C204.8 28.7998 205.4 28.8998 205.9 29.0998Z" fill="white"/>
<path d="M77.9999 1.5C76.0999 1.5 74.1999 1.7 72.3999 2C58.9999 4.7 48.8999 16.5 48.8999 30.7C48.8999 39.4 52.6999 47.3 58.7999 52.6C53.7999 47.4 50.5999 40.2 50.5999 32.4C50.5999 23.2 54.8999 14.9 61.5999 9.6C61.9999 9.3 62.3999 8.9 62.8999 8.6C67.9999 4.4 74.4999 1.8 81.5999 1.8C81.9999 1.8 82.3999 1.8 82.7999 1.8C81.1999 1.7 79.5999 1.5 77.9999 1.5Z" fill="#068081"/>
<path d="M81.5999 60.2001C79.9999 60.2001 78.3999 60.1001 76.8999 59.8001C74.4999 59.4001 72.1999 58.7001 70.0999 57.8001C59.6999 53.3001 52.3999 43.0001 52.3999 31.0001C52.3999 23.1001 55.5999 15.8001 60.6999 10.6001C60.9999 10.2001 61.2999 9.9001 61.5999 9.6001C54.8999 14.9001 50.5999 23.2001 50.5999 32.4001C50.5999 40.3001 53.6999 47.4001 58.7999 52.6001C64.0999 58.1001 71.5999 61.5001 79.7999 61.5001C80.5999 61.5001 81.2999 61.5001 81.9999 61.4001C88.1999 60.9001 93.8999 58.5001 98.3999 54.7001C93.6999 58.2001 87.8999 60.2001 81.5999 60.2001Z" fill="#F06C25"/>
<path d="M42.6 32.5998C41.6 31.8998 40.5 31.2998 39.3 30.7998C37.3 29.9998 35.2 29.6998 33 29.6998C31.1 29.6998 29.3 29.9998 27.8 30.5998C26.3 31.1998 25 32.0998 24 33.0998L27 17.3998H45.1C45.8 15.4998 46.7001 13.5998 47.7001 11.7998H22.4C21.8 14.9998 21.2 17.9998 20.6 20.7998C20.4 21.6998 20.2 22.6998 20.1 23.4998C20 24.0998 19.9 24.5998 19.8 25.0998C19.5 26.7998 19.2 28.4998 18.8 30.1998C18.5 31.8998 18.2 33.3998 17.9 34.6998V34.7998C17.7 36.0998 17.4 37.1998 17.2 38.0998C17 38.9998 16.9 39.5998 16.9 39.8998H22.4C23.5 38.2998 24.9 36.9998 26.7 36.1998C28.3 35.3998 30 34.8998 31.9 34.8998C32 34.8998 32.2 34.8998 32.3 34.8998C32.8 34.8998 32.6001 34.8998 32.7001 34.8998C33.1001 34.8998 33.6 34.9998 34 34.9998C34.9 35.0998 35.7001 35.2998 36.4001 35.5998C37.7001 36.0998 38.8 36.7998 39.8 37.7998C40.8 38.6998 41.5 39.7998 42 41.0998C42.6 42.3998 42.8 43.7998 42.8 45.2998C42.8 46.8998 42.5 48.3998 42 49.6998C41.5 50.9998 40.7001 52.1998 39.7001 53.0998C38.7001 53.9998 37.5001 54.7998 36.2001 55.2998C34.8001 55.7998 33.4 56.0998 31.8 56.0998C29.3 56.0998 27 55.4998 24.8 54.1998C23.9 53.6998 23.1 52.9998 22.3 52.2998H15.8C17.2 55.0998 19.4 57.2998 22.2 58.9998C25 60.6998 28.2 61.4998 31.7 61.4998C34.1 61.4998 36.4 61.0998 38.5 60.2998C40.6 59.4998 42.5 58.3998 44.1 56.9998C45.7 55.5998 46.9 53.8998 47.8 51.7998C47.9 51.4998 48.1001 51.0998 48.2001 50.7998C44.8001 45.6998 42.8 39.3998 42.6 32.5998Z" fill="#F06C25"/>
<path opacity="0.85" d="M32.2001 35.0998H32.8001C32.3001 35.0998 32.7001 35.0998 32.2001 35.0998C32.0001 35.0998 31.9001 35.0998 31.8001 35.0998C30.0001 35.1998 28.2001 35.5998 26.6001 36.3998C24.9001 37.2998 23.5001 38.4998 22.3001 40.0998H0.100098C0.100098 38.3998 0.200098 36.7998 0.500098 35.2998C0.800098 33.7998 1.3001 32.3998 2.1001 30.9998C2.9001 29.5998 3.9001 28.2998 5.3001 27.0998C6.6001 25.8998 8.4001 24.5998 10.6001 23.3998C11.9001 22.6998 13.2001 21.9998 14.5001 21.3998C15.8001 20.6998 17.0001 19.9998 18.1001 19.2998C19.2001 18.5998 20.1001 17.6998 20.8001 16.8998C21.5001 16.0998 21.9001 15.0998 21.9001 13.8998C21.9001 13.1998 21.7001 12.4998 21.4001 11.6998C21.1001 10.8998 20.6001 10.2998 19.9001 9.7998C19.3001 9.2998 18.5001 8.7998 17.5001 8.4998C16.5001 8.1998 15.4001 7.9998 14.2001 7.9998C12.9001 7.9998 11.7001 8.1998 10.7001 8.4998C9.6001 8.8998 8.7001 9.2998 7.9001 9.8998C7.1001 10.3998 6.4001 10.9998 5.8001 11.5998C5.2001 12.1998 4.7001 12.6998 4.3001 13.1998L0.600098 8.9998C1.0001 8.5998 1.5001 8.09981 2.4001 7.39981C3.2001 6.69981 4.2001 6.0998 5.5001 5.3998C6.7001 4.6998 8.2001 4.0998 9.8001 3.5998C11.4001 3.0998 13.2001 2.7998 15.2001 2.7998C17.2001 2.7998 18.9001 3.0998 20.5001 3.5998C22.1001 4.1998 23.4001 4.8998 24.5001 5.7998C25.6001 6.6998 26.4001 7.7998 27.0001 9.0998C27.4001 9.9998 27.7001 10.8998 27.8001 11.7998C27.9001 12.1998 27.9001 12.6998 27.9001 13.0998C27.9001 14.7998 27.5001 16.1998 26.8001 17.3998C26.1001 18.5998 25.2001 19.6998 24.1001 20.6998L24.0001 20.7998C23.0001 21.6998 21.9001 22.4998 20.8001 23.0998C20.5001 23.1998 20.3001 23.3998 20.0001 23.4998C19.1001 23.9998 18.3001 24.3998 17.6001 24.7998C16.7001 25.2998 15.6001 25.7998 14.4001 26.4998C13.2001 27.1998 12.1001 27.8998 11.0001 28.6998C9.9001 29.4998 9.0001 30.4998 8.2001 31.4998C7.4001 32.4998 6.9001 33.5998 6.7001 34.7998L32.2001 35.0998Z" fill="#00B6B8"/>
<path d="M3.1 43.8999H2.1L0 49.3999H1.1L1.6 47.9999H3.5L4 49.3999H5.1L3.1 43.8999ZM1.8 47.2999L2.6 45.0999L3.4 47.2999H1.8Z" fill="white"/>
<path d="M11.4001 42.2998C11.4001 42.3998 11.4001 42.4998 11.3001 42.4998L11.2001 42.5998C11.1001 42.5998 11.1001 42.6998 11.0001 42.6998C10.9001 42.6998 10.8001 42.6998 10.8001 42.5998C10.7001 42.5998 10.6001 42.4998 10.6001 42.4998C10.5001 42.4998 10.4001 42.3998 10.4001 42.3998C10.3001 42.3998 10.2001 42.2998 10.1001 42.2998C9.9001 42.2998 9.8001 42.2998 9.7001 42.3998C9.6001 42.4998 9.5001 42.5998 9.4001 42.6998C9.3001 42.7998 9.3001 42.8998 9.2001 42.9998C9.2001 43.0998 9.2001 43.1998 9.2001 43.1998H9.8001C9.8001 43.1998 9.8001 43.1998 9.8001 43.0998V42.9998C9.8001 42.8998 9.9001 42.8998 9.9001 42.8998C9.9001 42.8998 10.0001 42.7998 10.1001 42.7998C10.2001 42.7998 10.3001 42.7998 10.3001 42.8998C10.4001 42.8998 10.4001 42.9998 10.5001 42.9998C10.6001 42.9998 10.7001 43.0998 10.7001 43.0998C10.8001 43.0998 10.9001 43.1998 11.0001 43.1998C11.2001 43.1998 11.3001 43.1998 11.5001 43.0998C11.6001 42.9998 11.7001 42.8998 11.8001 42.7998C11.9001 42.6998 11.9001 42.5998 12.0001 42.4998C12.0001 42.3998 12.1001 42.2998 12.1001 42.2998H11.4001ZM11.9001 43.8998V47.4998L9.0001 43.8998H8.1001V49.3998H9.2001V45.7998L12.0001 49.3998H12.9001V43.8998H11.9001Z" fill="white"/>
<path d="M21.3001 45.5999C21.2001 45.2999 21.0001 44.9999 20.8001 44.6999C20.6001 44.3999 20.3001 44.1999 20.0001 44.0999C19.7001 43.8999 19.3001 43.8999 18.9001 43.8999C18.5001 43.8999 18.1001 43.9999 17.8001 44.0999C17.5001 44.2999 17.2001 44.4999 16.9001 44.6999C16.7001 44.9999 16.5001 45.2999 16.3001 45.5999C16.2001 45.8999 16.1001 46.2999 16.1001 46.6999C16.1001 47.0999 16.2001 47.3999 16.3001 47.6999C16.4001 47.9999 16.6001 48.2999 16.8001 48.5999C17.0001 48.8999 17.3001 49.0999 17.6001 49.1999C17.9001 49.3999 18.3001 49.3999 18.7001 49.3999C19.1001 49.3999 19.5001 49.2999 19.8001 49.1999C20.1001 48.9999 20.4001 48.7999 20.7001 48.5999C20.9001 48.2999 21.1001 48.0999 21.3001 47.6999C21.4001 47.3999 21.5001 46.9999 21.5001 46.5999C21.5001 46.2999 21.4001 45.9999 21.3001 45.5999ZM20.3001 47.2999C20.2001 47.4999 20.1001 47.6999 20.0001 47.8999C19.9001 48.0999 19.7001 48.1999 19.5001 48.2999C19.3001 48.3999 19.1001 48.4999 18.8001 48.4999C18.5001 48.4999 18.3001 48.3999 18.1001 48.2999C17.9001 48.1999 17.7001 48.0999 17.6001 47.8999C17.5001 47.6999 17.4001 47.4999 17.3001 47.2999C17.2001 47.0999 17.2001 46.7999 17.2001 46.5999C17.2001 46.3999 17.2001 46.0999 17.3001 45.8999C17.4001 45.6999 17.5001 45.4999 17.6001 45.2999C17.7001 45.0999 17.9001 44.9999 18.1001 44.8999C18.3001 44.7999 18.5001 44.6999 18.8001 44.6999C19.0001 44.6999 19.3001 44.7999 19.5001 44.8999C19.7001 44.9999 19.9001 45.0999 20.0001 45.2999C20.1001 45.4999 20.2001 45.6999 20.3001 45.8999C20.4001 46.0999 20.4001 46.3999 20.4001 46.5999C20.4001 46.8999 20.4001 47.0999 20.3001 47.2999Z" fill="white"/>
<path d="M28.5 47.1997C28.4 46.9997 28.3 46.8997 28.1 46.6997C28 46.5997 27.8 46.4997 27.5 46.3997C27.3 46.2997 27 46.1997 26.8 46.1997C26.6 46.0997 26.4 46.0997 26.3 45.9997C26.1 45.9997 26 45.8997 25.9 45.7997C25.8 45.6997 25.7001 45.6997 25.7001 45.5997C25.6001 45.4997 25.6 45.3997 25.6 45.2997C25.6 45.0997 25.7 44.8997 25.8 44.7997C25.9 44.6997 26.2 44.5997 26.5 44.5997C26.7 44.5997 26.8 44.5997 27 44.6997C27.2 44.6997 27.3 44.7997 27.4 44.8997C27.5 44.9997 27.7 44.9997 27.8 45.0997C27.9 45.1997 28 45.1997 28 45.1997L28.5 44.2997C28.3 44.0997 28 43.9997 27.6 43.8997C27.3 43.7997 26.9 43.6997 26.5 43.6997C26.2 43.6997 26.0001 43.6997 25.7001 43.7997C25.5001 43.8997 25.2 43.9997 25.1 44.0997C24.9 44.1997 24.8001 44.3997 24.7001 44.5997C24.6001 44.7997 24.5 45.0997 24.5 45.2997C24.5 45.4997 24.5 45.6997 24.6 45.7997C24.7 45.9997 24.8 46.0997 24.9 46.1997C25 46.2997 25.2 46.3997 25.4 46.4997C25.6 46.5997 25.8 46.6997 26.1 46.6997C26.3 46.7997 26.5001 46.7997 26.7001 46.8997C26.9001 46.9997 27.0001 46.9997 27.2001 47.0997C27.3001 47.1997 27.4 47.1997 27.5 47.2997C27.6 47.3997 27.6 47.4997 27.6 47.5997C27.6 47.9997 27.3001 48.1997 26.7001 48.1997C26.5001 48.1997 26.3 48.1997 26.1 48.0997C25.9 47.9997 25.7 47.9997 25.5 47.8997C25.3 47.7997 25.2 47.6997 25.1 47.6997C25 47.5997 24.9 47.5997 24.8 47.4997L24.3 48.3997C24.6 48.5997 25 48.7997 25.4 48.8997C25.8 48.9997 26.2 49.0997 26.6 49.0997C26.9 49.0997 27.1 49.0997 27.4 48.9997C27.6 48.8997 27.9 48.7997 28.1 48.6997C28.3 48.5997 28.4 48.3997 28.6 48.1997C28.7 47.9997 28.8 47.6997 28.8 47.3997C28.7 47.5997 28.6 47.3997 28.5 47.1997Z" fill="white"/>
<path d="M2.30005 35C2.50005 33.8 3.00005 32.7 3.80005 31.7C4.60005 30.7 5.50005 29.8 6.60005 28.9C7.70005 28.1 8.80005 27.3 10 26.7C11.2 26 12.2 25.5 13.2 25C13.9 24.6 14.8 24.2 15.6 23.7C15.8 23.6 16.1 23.4 16.4 23.3C17.6 22.6 18.6 21.9 19.6 21L19.7001 20.9C20.7001 20 21.6 18.9 22.3 17.6C23 16.3 23.4 14.9 23.4 13.3C23.4 12.8 23.4 12.4 23.3 12C23.2 11.1 22.9 10.2 22.5 9.3C21.9 8.1 21.1 6.9 20 6C18.9 5.1 17.6 4.3 16 3.8C15 3.5 14 3.2 12.9 3.1C13.6 3 14.4 3 15.1 3C17.1 3 18.8 3.3 20.4 3.8C22 4.4 23.3 5.1 24.4 6C25.5 6.9 26.3 8 26.9 9.3C27.3 10.2 27.6001 11.1 27.7001 12C27.8001 12.4 27.8 12.9 27.8 13.3C27.8 15 27.4001 16.4 26.7001 17.6C26.0001 18.8 25.1 19.9 24.1 20.9L24 21C23 21.9 21.9 22.7 20.8 23.3C20.5 23.4 20.3 23.6 20 23.7C19.1 24.2 18.3 24.6 17.6 25C16.6 25.5 15.6 26 14.4 26.7C13.2 27.3 12 28 11 28.9C9.90005 29.7 9.00005 30.7 8.20005 31.7C7.40005 32.7 6.90005 33.8 6.70005 35" fill="#068081"/>
<path opacity="0.85" d="M48.0001 51.1998C47.9001 51.4998 47.7001 51.8998 47.6001 52.1998C46.7001 54.1998 45.5001 55.8998 43.9001 57.3998C42.3001 58.7998 40.5001 59.9998 38.3001 60.6998C36.2001 61.4998 33.9001 61.8998 31.5001 61.8998C28.0001 61.8998 24.8001 61.0998 22.0001 59.3998C19.2001 57.6998 17.1001 55.4998 15.6001 52.6998H16.2001C17.3001 53.8998 18.7001 54.9998 20.2001 55.8998C23.0001 57.5998 26.2001 58.3998 29.7001 58.3998C32.1001 58.3998 34.4001 57.9998 36.5001 57.1998C38.6001 56.3998 40.5001 55.2998 42.0001 53.8998C43.6001 52.4998 44.8001 50.7998 45.7001 48.6998C45.8001 48.3998 46.0001 48.0998 46.1001 47.7998C46.8001 48.9998 47.4001 50.0998 48.0001 51.1998Z" fill="#EC3F24"/>
</g>
<defs>
<clipPath id="clip0">
<rect width="206.2" height="61.8" fill="white"/>
</clipPath>
</defs>
</svg>
