<?xml version="1.0" encoding="utf-8"?>
<!-- Generator: Adobe Illustrator 24.3.0, SVG Export Plug-In . SVG Version: 6.00 Build 0)  -->
<svg version="1.1" id="Layer_1" xmlns="http://www.w3.org/2000/svg" xmlns:xlink="http://www.w3.org/1999/xlink" x="0px" y="0px"
	 viewBox="0 0 207 81.9" style="enable-background:new 0 0 207 81.9;" xml:space="preserve">
<style type="text/css">
	.st0{fill:#EC3F24;}
	.st1{fill:#00B6B8;}
	.st2{fill:#B42628;}
	.st3{fill:#EC4024;}
	.st4{fill:#FFFFFF;}
	.st5{fill:#068081;}
	.st6{fill:#F06C25;}
</style>
<g>
	<g>
		<path class="st0" d="M45.2,3.4c6.1,0.3,12,1.9,17,4.8c9.4,4,16.9,11.8,20.5,21.4C78.6,13.2,63.7,0.9,46,0.9
			c-4.9,0-15.1,0-26.1,7.3c2.3-0.5,16.8-5.3,19.2-5.3C41.2,2.9,43.3,3.2,45.2,3.4z"/>
		<path class="st1" d="M82.8,29.7c-3.6-9.6-11-17.4-20.5-21.4c11.6,6.5,19.4,18.8,19.4,33.1c0,9.1-3.2,17.5-8.6,24
			c-2.1,2.6-4.5,4.8-7.3,6.8c-5.8,4.9-13.3,8.1-21.4,8.7c0.9,0.1,1.9,0.1,2.9,0.1C68.1,81,85.1,64,85.1,43
			C85.1,38.4,84.3,33.8,82.8,29.7z"/>
		<path class="st2" d="M19.5,12.3c-0.5,0.4-1.2,0.8-1.7,1.3c-0.4,0.4-0.8,0.9-1.2,1.3C17.6,13.9,18.5,13,19.5,12.3z"/>
		<path class="st3" d="M19.5,12.3c-0.5,0.4-1.2,0.8-1.7,1.3c-0.4,0.4-0.8,0.9-1.2,1.3C17.6,13.9,18.5,13,19.5,12.3z"/>
		<path class="st0" d="M19.5,12.3c-0.5,0.4-1.2,0.8-1.7,1.3c-0.4,0.4-0.8,0.9-1.2,1.3C17.6,13.9,18.5,13,19.5,12.3z"/>
		<path class="st4" d="M23.5,48.4h-3.4l-6-9.9h-0.3l0.1,9.9h-2.9V33.7h3.4l6,9.9h0.3l-0.1-10h2.9V48.4z"/>
		<path class="st4" d="M34.3,46c0,0.1-0.3,2.3-0.3,2.3h-9.2V33.7h9.2c0,0,0.3,0.1,0.1,0.3c-0.1,0.1-0.3,2.3-0.3,2.3l-6.1-0.1
			l-0.1,3.5c0,0,4.8,0,4.9,0s0.3,0.1,0.1,0.3c0,0.1-0.3,2.3-0.3,2.3h-4.9v1.6V46h2.7c0,0,3.5-0.1,3.6-0.1
			C34.2,45.8,34.3,45.9,34.3,46z"/>
		<path class="st4" d="M45.8,36.3l-3.6-0.1v12.2H39V36.2l-3.8,0.1L35.1,36l0.3-2.3h10.4l0.1,0.3L45.8,36.3z"/>
		<path class="st4" d="M61.5,48.4l-0.4-4.4l-0.9-8.1H60l-4.4,10.8h-1l-4.3-10.8h-0.1l-0.9,7.9l-0.4,4.5h-1l1.6-14.6h1.3l0.8,2.2
			l3.6,9h0.1l3.8-9.2l0.8-2.1h1.3l1.4,14.7H61.5z"/>
		<path class="st4" d="M76.4,48.4H75l-0.6-1l-3.9-5.6l-3.9,5.7L66,48.4h-1.3l5.1-7.4L65,33.8h1.4l0.5,1l3.6,5.2l3.5-5.2l0.5-1h1.3
			l-4.7,7L76.4,48.4z"/>
		<path class="st4" d="M98,46.8l2.5-7.3l0.3-1.2h1.2l0.3,1l2.1,7.4h0.1l2.3-7.3l0.3-1.2h1l-3.2,9.7h-1l-2.3-8.2h-0.1l-2.7,8.2h-1.2
			l-2.9-9.6l1-0.1l0.3,1.2L98,46.8z"/>
		<path class="st4" d="M115.6,39.3c0.5,0.6,0.9,1.6,0.9,2.6v0.8l-0.3,0.3l-6.2,0.1v0.4c0,1.3,0.3,2.2,0.8,3c0.5,0.8,1.3,1,2.3,1
			c1,0,1.9-0.3,2.7-0.9h0.1l-0.1,0.9c-0.9,0.5-1.8,0.9-2.9,0.9c-1.3,0-2.3-0.4-3-1.3c-0.8-0.9-1-2.1-1-3.6s0.4-2.9,1.2-3.8
			c0.8-0.9,1.8-1.4,3.1-1.4C114.3,38.4,115.1,38.6,115.6,39.3z M114.9,39.8c-0.4-0.4-1-0.6-1.7-0.6c-0.8,0-1.4,0.3-2.1,0.8
			c-0.6,0.5-0.9,1.3-1,2.2l5.3-0.1v-0.3C115.5,41,115.4,40.3,114.9,39.8z"/>
		<path class="st4" d="M126.3,39.5c0.6,0.8,0.9,1.9,0.9,3.5c0,1.7-0.4,3-1.2,3.9c-0.8,0.9-1.9,1.4-3.4,1.4c-0.6,0-1.4-0.1-2.2-0.4
			l-0.8,0.4l-0.3-0.1l0.1-4.2V33.3l1-0.1v6.6h0.1c0.9-0.9,1.8-1.3,3-1.4C124.7,38.4,125.7,38.8,126.3,39.5z M125.3,46.3
			c0.6-0.8,0.9-1.8,0.9-3.1c0-1.3-0.3-2.2-0.6-2.9c-0.5-0.6-1.2-1-2.1-1c-1,0-2.1,0.5-3,1.7v3v2.9c0.8,0.4,1.6,0.6,2.2,0.6
			C123.8,47.5,124.6,47.1,125.3,46.3z"/>
		<path class="st4" d="M138.4,38.8l-0.1,0.9h-0.1c-0.6-0.4-1.3-0.5-1.9-0.5c-0.5,0-1,0.1-1.4,0.5c-0.4,0.4-0.5,0.8-0.5,1.2
			c0,0.5,0.1,0.8,0.5,1c0.4,0.3,0.9,0.5,1.6,0.9c0.5,0.3,1,0.5,1.3,0.6c0.3,0.3,0.6,0.5,0.8,0.8c0.3,0.4,0.4,0.8,0.4,1.2
			c0,0.5-0.1,0.9-0.4,1.4c-0.3,0.4-0.6,0.8-1.2,1c-0.5,0.3-1,0.4-1.7,0.4c-0.9,0-1.8-0.3-2.7-0.6l0.1-0.9l0.1-0.1
			c0.8,0.6,1.6,0.9,2.5,0.9c0.6,0,1.2-0.1,1.6-0.5c0.4-0.4,0.6-0.8,0.6-1.3c0-0.4-0.1-0.8-0.5-1c-0.4-0.3-0.8-0.5-1.6-0.9
			c-0.5-0.3-1-0.5-1.3-0.6c-0.4-0.3-0.6-0.5-0.9-0.8c-0.3-0.4-0.4-0.8-0.4-1.3c0-0.8,0.3-1.4,0.9-1.8c0.5-0.5,1.3-0.8,2.2-0.8
			C137,38.4,137.7,38.5,138.4,38.8z"/>
		<path class="st4" d="M148,39.5c0.8,0.9,1,2.1,1,3.6c0,1.6-0.4,2.9-1.2,3.8c-0.8,0.9-1.8,1.3-3.1,1.3s-2.3-0.4-3-1.3
			c-0.6-0.9-1-2.1-1-3.6c0-1.6,0.4-2.9,1.2-3.8c0.8-0.9,1.8-1.3,3.1-1.3C146.3,38.2,147.3,38.8,148,39.5z M142.7,40.2
			c-0.5,0.6-0.8,1.7-0.8,3c0,1.4,0.3,2.5,0.8,3.1c0.5,0.6,1.3,1,2.2,1c1,0,1.8-0.4,2.3-1c0.5-0.6,0.8-1.7,0.8-3
			c0-1.4-0.3-2.5-0.8-3.1c-0.5-0.8-1.3-1.2-2.2-1.2C144,39.1,143.2,39.5,142.7,40.2z"/>
		<path class="st4" d="M153.2,48.1h-1v-4.2V33.3l1.2-0.1l-0.1,10.8V48.1z"/>
		<path class="st4" d="M164.6,47.3c0.3,0,0.5-0.1,0.8-0.3l0.1,0.1l-0.1,0.6c-0.4,0.3-0.6,0.4-1,0.4c-0.8,0-1.3-0.5-1.3-1.6h-0.1
			c-0.9,0.9-1.9,1.6-3,1.6c-0.9,0-1.7-0.3-2.2-0.8s-0.8-1.2-0.8-2.2v-2.3v-4.5l1.2-0.1V45c0,0.6,0.1,1.2,0.5,1.6s0.8,0.5,1.4,0.5
			c1,0,1.9-0.5,3-1.6v-7.1l1-0.1V46C164,46.9,164.1,47.3,164.6,47.3z"/>
		<path class="st4" d="M172.3,46.8v0.9c-0.6,0.4-1.3,0.5-1.9,0.5c-1.4-0.1-2.2-1-2.2-2.6v-1.9v-4.4h-1.3l-0.1-0.1l0.1-0.6h1.3v-1.9
			l0.9-0.4l0.1,0.1v2.2h3.1l0.1,0.1l-0.1,0.6h-3.1v6.2c0,1.2,0.5,1.8,1.4,1.8C171.1,47.3,171.6,47.1,172.3,46.8z"/>
		<path class="st4" d="M175.8,35c0,0.5-0.3,0.8-0.8,0.8c-0.5,0-0.6-0.3-0.6-0.6c0-0.3,0-0.4,0.1-0.5c0.1-0.1,0.3-0.3,0.5-0.3
			C175.7,34.3,175.8,34.6,175.8,35z M175.7,48.1h-1v-4.2v-5.5l1.2-0.1l-0.1,5.6V48.1z"/>
		<path class="st4" d="M185.9,39.5c0.8,0.9,1,2.1,1,3.6c0,1.6-0.4,2.9-1.2,3.8c-0.8,0.9-1.8,1.3-3.1,1.3c-1.3,0-2.3-0.4-3-1.3
			c-0.6-0.9-1-2.1-1-3.6c0-1.6,0.4-2.9,1.2-3.8c0.8-0.9,1.8-1.3,3.1-1.3S185.1,38.8,185.9,39.5z M180.5,40.2c-0.5,0.6-0.8,1.7-0.8,3
			c0,1.4,0.3,2.5,0.8,3.1c0.5,0.6,1.3,1,2.2,1c1,0,1.8-0.4,2.3-1c0.5-0.6,0.8-1.7,0.8-3c0-1.4-0.3-2.5-0.8-3.1
			c-0.5-0.8-1.3-1.2-2.2-1.2C181.9,39.1,181.1,39.5,180.5,40.2z"/>
		<path class="st4" d="M195.7,39.8c-0.4-0.4-0.8-0.5-1.4-0.5c-1,0-2.1,0.6-3.1,1.8v2.9v4.3H190v-4.2v-5.5l1-0.1v1.4h0.1
			c1-1,1.9-1.6,3-1.7c1,0,1.7,0.3,2.2,0.8c0.5,0.5,0.8,1.2,0.8,2.2v2.7v4.2h-1.2v-6.8C196.2,40.7,195.9,40.2,195.7,39.8z"/>
		<path class="st4" d="M205.3,38.8l-0.1,0.9H205c-0.6-0.4-1.3-0.5-1.9-0.5c-0.5,0-1,0.1-1.4,0.5c-0.4,0.4-0.5,0.8-0.5,1.2
			c0,0.5,0.1,0.8,0.5,1c0.4,0.3,0.9,0.5,1.6,0.9c0.5,0.3,1,0.5,1.3,0.6c0.3,0.3,0.6,0.5,0.8,0.8c0.3,0.4,0.4,0.8,0.4,1.2
			c0,0.5-0.1,0.9-0.4,1.4c-0.3,0.4-0.6,0.8-1.2,1c-0.5,0.3-1,0.4-1.7,0.4c-0.9,0-1.8-0.3-2.7-0.6l0.1-0.9l0.1-0.1
			c0.8,0.6,1.6,0.9,2.5,0.9c0.6,0,1.2-0.1,1.6-0.5c0.4-0.4,0.6-0.8,0.6-1.3c0-0.4-0.1-0.8-0.5-1c-0.4-0.3-0.8-0.5-1.6-0.9
			c-0.5-0.3-1-0.5-1.3-0.6c-0.4-0.3-0.6-0.5-0.9-0.8c-0.3-0.4-0.4-0.8-0.4-1.3c0-0.8,0.3-1.4,0.9-1.8c0.5-0.5,1.3-0.8,2.2-0.8
			C203.9,38.4,204.6,38.5,205.3,38.8z"/>
		<path class="st5" d="M39.1,2.9c-2.5,0-4.9,0.3-7.3,0.6C14.4,7.1,1.3,22.4,1.3,40.8c0,11.3,4.9,21.6,12.9,28.5
			C7.7,62.5,3.5,53.2,3.5,43c0-12,5.6-22.7,14.3-29.6c0.5-0.4,1-0.9,1.7-1.3c6.6-5.5,15.1-8.8,24.3-8.8c0.5,0,1,0,1.6,0
			C43.3,3.2,41.2,2.9,39.1,2.9z"/>
		<path class="st6" d="M43.8,79.2c-2.1,0-4.2-0.1-6.1-0.5c-3.1-0.5-6.1-1.4-8.8-2.6c-13.5-5.8-23-19.2-23-34.8
			C5.9,31,10,21.5,16.7,14.7c0.4-0.5,0.8-0.9,1.2-1.3C9.1,20.3,3.5,31.1,3.5,43c0,10.3,4,19.5,10.7,26.2
			c6.9,7.1,16.6,11.6,27.3,11.6c1,0,1.9,0,2.9-0.1c8.1-0.6,15.5-3.8,21.3-8.7C59.5,76.6,52,79.2,43.8,79.2z"/>
	</g>
</g>
</svg>
