<?xml version="1.0" encoding="utf-8"?>
<!-- Generator: Adobe Illustrator 26.0.3, SVG Export Plug-In . SVG Version: 6.00 Build 0)  -->
<svg version="1.1" id="Layer_1" xmlns="http://www.w3.org/2000/svg" xmlns:xlink="http://www.w3.org/1999/xlink" x="0px" y="0px"
	 viewBox="0 0 300 300" style="enable-background:new 0 0 300 300;" xml:space="preserve">
<style type="text/css">
	.st0{fill:#EA3E24;}
</style>
<g>
	<path class="st0" d="M149.7,26.4c-69.2,2.3-144,23-144.7,63c0.1,1.6,0.2,3.1,0.4,4.7L9.7,123c1.3,8.5,8.5,14.7,17.4,14.8
		c0.8,0,1.5-0.1,2.2-0.2l49.5-7.3c9.4-1.4,16-10.2,14.6-19.7c-0.7-4.9-1.6-9.2-2.3-12.4c-0.8-4.1-2-9.6-1.3-10.7
		c0.7-1,4.3-3.2,20.7-6.3c17-3.2,36.7-4.1,39.6-4.1c2.9,0,22.4,0.9,39.3,4.1c16.5,3.1,20,5.3,20.7,6.3c0.7,1.1-0.5,6.7-1.3,10.7
		c-0.7,3.5-1.5,7.6-2.3,12.4c-0.7,4.6,0.5,9.1,3.2,12.9c2.8,3.7,6.8,6.2,11.4,6.8l49.4,7.3c0.8,0.1,1.5,0.2,2.6,0.2h0h0
		c8.4-0.1,15.7-6.4,17-14.8l4.3-28.8c0.2-1.6,0.4-3.2,0.5-5.2C294.3,49.3,219.2,28.7,149.7,26.4z M224.1,101.9l0.1-0.7
		c1.8-9,3.3-16.1-1-22.5c-4.6-6.9-14-9.8-30.8-13c-18.1-3.4-38.6-4.4-42.7-4.4c-4,0.1-24.2,1-42.1,4.4c-16.8,3.2-26.2,6.1-30.8,13
		c-4.3,6.4-2.9,13.6-1,22.6c0.7,3.5,1.5,7.2,2.1,11.5c0.1,0.9-0.5,1.7-1.4,1.9l-49.6,7.3c-0.8,0-1.5-0.6-1.6-1.4L21,91.9
		c-0.2-1.1-0.2-2.1-0.3-2.7C21.1,65.6,79,44.5,149.8,42.1c71,2.4,129.1,23.4,129.5,46.7c0,1-0.1,2-0.3,3.1l-4.3,28.8
		c-0.1,0.9-0.8,1.4-1.7,1.4l-49.5-7.3c-0.9-0.1-1.5-1-1.4-1.9C222.8,108.7,223.5,105.1,224.1,101.9z"/>
	<path class="st0" d="M207.8,178.4c0-31.8-25.9-57.8-57.8-57.8c-31.8,0-57.8,25.9-57.8,57.8c0,31.9,25.9,57.8,57.8,57.8
		C181.8,236.2,207.8,210.3,207.8,178.4z M107.9,178.4c0-23.2,18.9-42.1,42.1-42.1s42.1,18.9,42.1,42.1c0,23.2-18.9,42.1-42.1,42.1
		S107.9,201.6,107.9,178.4z"/>
	<path class="st0" d="M245.6,144c-0.7-2-2-3.6-3.9-4.6c-1.8-1-4-1.1-6-0.4c-2,0.7-3.6,2-4.6,3.9c-0.9,1.9-1.1,4-0.5,6l0.5,1.7
		c7,21.5,18.7,57.4,18.7,64.2v21.1c0,12.2-8.2,22.1-18.2,22.1H68.3c-10,0-18.2-9.9-18.2-22.1v-21.1c0-7.3,13.7-46.8,20.2-65.8
		c0.7-2,0.6-4.1-0.4-6c-0.9-1.9-2.5-3.3-4.5-4c-4.1-1.4-8.5,0.8-10,4.8c-14,40.5-21.1,62.6-21.1,70.9v21.1
		c0,20.9,15.2,37.8,33.9,37.8h163.4c18.7,0,33.9-17,33.9-37.8v-21.1c0-8.7-7.8-33.2-19.7-69.7L245.6,144z"/>
</g>
</svg>
