<?xml version="1.0" encoding="UTF-8"?>
<svg width="201px" height="36px" viewBox="0 0 201 36" version="1.1" xmlns="http://www.w3.org/2000/svg" xmlns:xlink="http://www.w3.org/1999/xlink">
    <!-- Generator: Sketch 42 (36781) - http://www.bohemiancoding.com/sketch -->
    <title>QPass</title>
    <desc>Created with Sketch.</desc>
    <defs></defs>
    <g id="Page-1" stroke="none" stroke-width="1" fill="none" fill-rule="evenodd">
        <g id="Desktop-HD" transform="translate(-367.000000, -476.000000)" fill-rule="nonzero">
            <g id="QPass" transform="translate(367.000000, 476.000000)">
                <g id="Layer_2">
                    <g>
                        <g id="Layer_1-2">
                            <path d="M11.32,0 L35.19,0 C42.83,0 46.6533333,2.66666667 46.66,8 L46.66,20.2 C46.66,24.5133333 44.19,27.07 39.25,27.87 L45.78,35.12 L34.39,35.12 L28.08,28.18 L11.32,28.18 C3.77333333,28.18 0,25.52 0,20.2 L0,8 C0,2.66666667 3.77333333,0 11.32,0 Z M16.18,15.81 L27.65,15.81 L32.87,22 C34.13,21.67 34.76,21 34.76,20 L34.76,9 C34.76,7.39 33.35,6.59 30.55,6.59 L16.11,6.59 C13.3033333,6.59666667 11.9,7.4 11.9,9 L11.9,20 C11.9,21.52 13.3033333,22.28 16.11,22.28 L21.7,22.28 L16.18,15.81 Z" id="Shape" fill="#93D500"></path>
                            <path d="M62.64,16.78 L72.46,16.78 C74.54,16.78 75.58,16.19 75.58,15.02 L75.58,14.78 C75.58,13.61 74.58,13.02 72.46,13.02 L60.6,13.02 L60.6,28.18 L52,28.18 L52,7.62 L76.43,7.62 C77.8597483,7.58678104 79.2887046,7.71424662 80.69,8 C81.5547851,8.15640316 82.3663446,8.52779482 83.05,9.08 C83.5840112,9.55673228 83.9372126,10.2030908 84.05,10.91 C84.1776385,11.7505119 84.2378305,12.599888 84.23,13.45 L84.23,17.5 C84.2505632,18.2862544 84.1251079,19.0695025 83.86,19.81 C83.6143399,20.454421 83.182744,21.011319 82.62,21.41 C81.8963527,21.8791192 81.087781,22.2018684 80.24,22.36 C78.9905501,22.5931657 77.7208566,22.7003693 76.45,22.68 L62.67,22.68 L62.64,16.78 Z" id="Shape" fill="#53575A"></path>
                            <path d="M133.66,7.62 L156.79,7.62 L156.79,13 L136.36,13 C135.709886,12.9296144 135.052557,13.0259768 134.45,13.28 C134.200821,13.4814158 134.063244,13.7900349 134.08,14.11 C134.067649,14.2630846 134.067649,14.4169154 134.08,14.57 C134.109433,14.7091239 134.196713,14.8291337 134.32,14.9 C134.523573,15.0121343 134.748425,15.0802712 134.98,15.1 C135.427629,15.1569191 135.878885,15.1803176 136.33,15.17 L148.61,15.17 C149.901453,15.1478474 151.190838,15.2821582 152.45,15.57 C153.371352,15.7699315 154.24023,16.1617785 155,16.72 C155.603707,17.1657166 156.079616,17.7623265 156.38,18.45 C156.669365,19.1607799 156.81222,19.9226731 156.8,20.69 L156.8,22.36 C156.944212,24.083158 156.187843,25.7585148 154.8,26.79 C153.466667,27.7166667 151.403333,28.18 148.61,28.18 L125.45,28.18 L125.45,22.68 L146.26,22.68 C146.776317,22.7241843 147.295473,22.6382313 147.77,22.43 C148.028714,22.2618769 148.177539,21.9680435 148.16,21.66 L148.16,21.66 C148.142751,21.4266825 148.063333,21.2022415 147.93,21.01 C147.77,20.76 147.21,20.64 146.26,20.64 L133.61,20.64 C130.943333,20.64 128.913333,20.11 127.52,19.05 C126.179994,18.0631723 125.407016,16.4836101 125.45,14.82 L125.45,13.44 C125.444658,12.63194 125.569594,11.8283009 125.82,11.06 C126.074613,10.3274383 126.536696,9.68469204 127.15,9.21 C127.90212,8.63247747 128.767641,8.22016238 129.69,8 C130.992089,7.70689833 132.325952,7.57922378 133.66,7.62 L133.66,7.62 Z" id="Shape" fill="#53575A"></path>
                            <path d="M170.17,7.62 L193.31,7.62 L193.31,13 L172.87,13 C172.223139,12.9291104 171.568912,13.0255229 170.97,13.28 C170.720821,13.4814158 170.583244,13.7900349 170.6,14.11 L170.6,14.57 C170.629433,14.7091239 170.716713,14.8291337 170.84,14.9 C171.043573,15.0121343 171.268425,15.0802712 171.5,15.1 C171.947629,15.1569191 172.398885,15.1803176 172.85,15.17 L185.14,15.17 C186.428115,15.1486547 187.714093,15.2829605 188.97,15.57 C189.878096,15.7714029 190.735571,16.1559059 191.49,16.7 C192.088097,17.1489944 192.560019,17.7449255 192.86,18.43 C193.157434,19.1386734 193.303882,19.9015651 193.29,20.67 L193.29,22.34 C193.434212,24.063158 192.677843,25.7385148 191.29,26.77 C189.956667,27.6966667 187.89,28.16 185.09,28.16 L162,28.16 L162,22.66 L182.8,22.66 C183.316368,22.7054842 183.835845,22.619478 184.31,22.41 C184.574163,22.2458425 184.727579,21.9505173 184.71,21.64 L184.71,21.64 C184.69339,21.4049297 184.61014,21.1794594 184.47,20.99 C184.31,20.74 183.76,20.62 182.8,20.62 L170.12,20.62 C167.453333,20.62 165.423333,20.09 164.03,19.03 C162.701875,18.0282248 161.944528,16.4426459 162,14.78 L162,13.44 C161.98958,12.6315725 162.114644,11.8271094 162.37,11.06 C162.621878,10.3286794 163.080387,9.68607199 163.69,9.21 C164.435526,8.6399294 165.289657,8.22817726 166.2,8 C167.502173,7.70742362 168.83597,7.57975544 170.17,7.62 L170.17,7.62 Z" id="Shape" fill="#53575A"></path>
                            <path d="M198.38,7.56 C199.599014,7.59296881 200.563226,8.60303626 200.539563,9.82226623 C200.5159,11.0414962 199.513222,12.0133902 198.293847,11.9990347 C197.074472,11.9846792 196.094953,10.9894491 196.1,9.77 C196.09401,9.1697774 196.334647,8.59340492 196.765655,8.17563024 C197.196662,7.75785555 197.780256,7.5353022 198.38,7.56 L198.38,7.56 Z M198.38,11.56 C198.837979,11.554898 199.274524,11.3652164 199.590767,11.0339142 C199.90701,10.7026121 200.076193,10.257721 200.06,9.8 C200.06,8.87216162 199.307838,8.12 198.38,8.12 C197.452162,8.12 196.7,8.87216162 196.7,9.8 C196.689259,10.2533763 196.861184,10.6920462 197.177124,11.0173886 C197.493063,11.342731 197.926504,11.5274438 198.38,11.53 L198.38,11.56 Z M197.5,8.56 L198.43,8.56 C199.06,8.56 199.43,8.76 199.43,9.3 C199.444664,9.47826031 199.381629,9.65416861 199.257085,9.78254501 C199.132541,9.9109214 198.958623,9.97925677 198.78,9.97 L199.44,11.06 L198.92,11.06 L198.3,10 L198,10 L198,11 L197.51,11 L197.5,8.56 Z M198,9.57 L198.44,9.57 C198.72,9.57 198.93,9.52 198.93,9.22 C198.93,8.92 198.64,8.91 198.41,8.91 L198,8.91 L198,9.57 Z" id="Shape" fill="#53575A"></path>
                            <polygon id="Shape" fill="#53575A" points="107.55 22.81 98.94 22.81 104.57 14.81 109.8 22.56 113.91 28.5 122.91 28.5 109.13 7.37 99.9 7.37 86.32 28.45 111.09 28.45"></polygon>
                            <path d="M52.82,33.65 C52.8290191,33.8061323 52.8847645,33.9559482 52.98,34.08 C53.1778288,34.2756081 53.4535476,34.3711906 53.73,34.34 C53.9052951,34.3446121 54.0803616,34.3244121 54.25,34.28 C54.4764313,34.220333 54.6331381,34.0141397 54.63,33.78 C54.6333227,33.6457104 54.559494,33.5213672 54.44,33.46 C54.2587067,33.3625155 54.0628473,33.2949778 53.86,33.26 L53.4,33.16 C53.0749467,33.103502 52.7609964,32.9954761 52.47,32.84 C52.1700309,32.6343456 52.0053682,32.282044 52.04,31.92 C52.0316445,31.5594752 52.1858685,31.2143072 52.46,30.98 C52.8086872,30.7051794 53.2470623,30.5697464 53.69,30.6 C54.1041172,30.589829 54.5106172,30.7124798 54.85,30.95 C55.1588129,31.190981 55.342503,31.5583611 55.35,31.95 L54.5,31.95 C54.4951074,31.7210171 54.3643748,31.513383 54.16,31.41 C53.9930062,31.3375437 53.8119147,31.3033754 53.63,31.31 C53.4346327,31.2975861 53.2399183,31.3427876 53.07,31.44 C52.9348978,31.5227181 52.8546901,31.6716754 52.86,31.83 C52.8575144,31.974641 52.9395526,32.1074646 53.07,32.17 C53.2494931,32.2480539 53.4374068,32.3050991 53.63,32.34 L54.37,32.52 C54.6319921,32.5666283 54.8809288,32.668931 55.1,32.82 C55.3650257,33.0275558 55.5078402,33.3545258 55.48,33.69 C55.4983231,34.0760732 55.3311048,34.4476694 55.03,34.69 C54.670344,34.965986 54.2222747,35.101118 53.77,35.07 C53.3009151,35.0985812 52.8358872,34.9682324 52.45,34.7 C52.1427648,34.4597956 51.9652438,34.0899603 51.97,33.7 L52.82,33.65 Z" id="Shape" fill="#53575A"></path>
                            <polygon id="Shape" fill="#53575A" points="58.08 35 57.21 35 57.21 30.72 58.08 30.72"></polygon>
                            <path d="M60.72,33.65 C60.7363495,33.8061649 60.7951413,33.9548736 60.89,34.08 C61.086213,34.2781888 61.3632194,34.3742176 61.64,34.34 C61.8152951,34.3446121 61.9903616,34.3244121 62.16,34.28 C62.3864313,34.220333 62.5431381,34.0141397 62.54,33.78 C62.5388229,33.6469263 62.4662724,33.5247359 62.35,33.46 C62.1657501,33.3611568 61.9663756,33.2935722 61.76,33.26 L61.31,33.16 C60.9849467,33.103502 60.6709964,32.9954761 60.38,32.84 C60.0800309,32.6343456 59.9153682,32.282044 59.95,31.92 C59.9416445,31.5594752 60.0958685,31.2143072 60.37,30.98 C60.7186872,30.7051794 61.1570623,30.5697464 61.6,30.6 C62.011012,30.5898543 62.4143272,30.7126024 62.75,30.95 C63.0647573,31.186068 63.25,31.5565534 63.25,31.95 L62.4,31.95 C62.4021822,31.7189526 62.2692943,31.5078955 62.06,31.41 C61.8968054,31.3366707 61.7187523,31.3024297 61.54,31.31 C61.3446327,31.2975861 61.1499183,31.3427876 60.98,31.44 C60.8448978,31.5227181 60.7646901,31.6716754 60.77,31.83 C60.7680165,31.9717699 60.8451243,32.1028531 60.97,32.17 C61.1537181,32.2459211 61.3447087,32.3028832 61.54,32.34 L62.28,32.52 C62.5414004,32.5686478 62.7899294,32.670783 63.01,32.82 C63.2680232,33.0329095 63.409154,33.3560246 63.39,33.69 C63.4083231,34.0760732 63.2411048,34.4476694 62.94,34.69 C62.5772729,34.9675004 62.125533,35.1026667 61.67,35.07 C61.2041936,35.0970898 60.7428066,34.9667744 60.36,34.7 C60.0527648,34.4597956 59.8752438,34.0899603 59.88,33.7 L60.72,33.65 Z" id="Shape" fill="#53575A"></path>
                            <polygon id="Shape" fill="#53575A" points="68.26 30.72 68.26 31.47 67 31.47 67 35 66.1 35 66.1 31.47 64.83 31.47 64.83 30.72"></polygon>
                            <polygon id="Shape" fill="#53575A" points="73.08 31.47 70.84 31.47 70.84 32.37 72.9 32.37 72.9 33.11 70.84 33.11 70.84 34.19 73.19 34.19 73.19 35 70 35 70 30.72 73.1 30.72"></polygon>
                            <polygon id="Shape" fill="#53575A" points="77.86 30.72 79.13 30.72 79.13 35 78.31 35 78.31 31.4 77.51 35 76.65 35 75.86 31.44 75.86 35 75 35 75 30.72 76.28 30.72 77.05 34.05"></polygon>
                            <path d="M82.34,30.72 L83.34,30.72 L84.83,35 L83.83,35 L83.56,34.13 L82,34.13 L81.71,35 L80.79,35 L82.34,30.72 Z M82.28,33.36 L83.36,33.36 L82.83,31.69 L82.28,33.36 Z" id="Shape" fill="#53575A"></path>
                            <path d="M93.57,30.82 C93.8628698,30.9104788 94.1165858,31.0972419 94.29,31.35 C94.4382938,31.5558424 94.540605,31.7911581 94.59,32.04 C94.6406942,32.269957 94.6675031,32.5045348 94.67,32.74 C94.6870149,33.2385378 94.5695765,33.73247 94.33,34.17 C94.0454185,34.6819494 93.495053,34.9881387 92.91,34.96 L91.09,34.96 L91.09,30.72 L92.91,30.72 C93.1336376,30.7217581 93.3558792,30.7554311 93.57,30.82 L93.57,30.82 Z M92,31.46 L92,34.22 L92.81,34.22 C93.2082223,34.2308685 93.5662108,33.9786493 93.69,33.6 C93.7841367,33.3441116 93.8282688,33.0725292 93.82,32.8 C93.8408648,32.4549846 93.7719581,32.1104508 93.62,31.8 C93.4326124,31.5469154 93.1218854,31.4164869 92.81,31.46 L92,31.46 Z" id="Shape" fill="#53575A"></path>
                            <polygon id="Shape" fill="#53575A" points="99.64 31.47 97.4 31.47 97.4 32.37 99.46 32.37 99.46 33.11 97.4 33.11 97.4 34.19 99.74 34.19 99.74 35 96.54 35 96.54 30.72 99.64 30.72"></polygon>
                            <path d="M106.66,31.17 C106.998956,30.8175471 107.471237,30.6250016 107.96,30.64 C108.559166,30.5951687 109.139805,30.8590952 109.5,31.34 C109.668138,31.5713017 109.768554,31.8448495 109.79,32.13 L108.91,32.13 C108.867504,31.9637369 108.792755,31.8074434 108.69,31.67 C108.509456,31.4788444 108.252146,31.379596 107.99,31.4 C107.692468,31.3932016 107.412569,31.5407159 107.25,31.79 C107.046763,32.1195708 106.949069,32.5033685 106.97,32.89 C106.943514,33.266011 107.045788,33.6398404 107.26,33.95 C107.43207,34.1794634 107.703205,34.3131736 107.99,34.31 C108.257865,34.3275957 108.518007,34.2161064 108.69,34.01 C108.795917,33.8596574 108.870715,33.6896609 108.91,33.51 L109.79,33.51 C109.730933,33.943883 109.522264,34.3435384 109.2,34.64 C108.87509,34.9338728 108.447713,35.0883031 108.01,35.07 C107.473373,35.1009883 106.95148,34.8878209 106.59,34.49 C105.87051,33.4915026 105.899063,32.1372836 106.66,31.17 L106.66,31.17 Z" id="Shape" fill="#53575A"></path>
                            <path d="M114.93,34.58 C114.558901,34.9293548 114.058318,35.1070981 113.55,35.07 C113.038633,35.1074712 112.534823,34.9298692 112.16,34.58 C111.707156,34.1144449 111.474349,33.477862 111.52,32.83 C111.470698,32.1846038 111.704252,31.5496307 112.16,31.09 C112.533807,30.7375569 113.03734,30.55643 113.55,30.59 C114.059792,30.5555643 114.56058,30.7370092 114.93,31.09 C115.389402,31.5478714 115.626689,32.1830715 115.58,32.83 C115.621728,33.4791776 115.385392,34.1154671 114.93,34.58 L114.93,34.58 Z M114.38,33.94 C114.794337,33.2615942 114.794337,32.4084058 114.38,31.73 C114.182763,31.473325 113.873482,31.3280003 113.55,31.34 C113.223048,31.3246957 112.909301,31.4703637 112.71,31.73 C112.295663,32.4084058 112.295663,33.2615942 112.71,33.94 C112.911424,34.1958839 113.224829,34.3376624 113.55,34.32 C113.871714,34.3343668 114.180659,34.1929219 114.38,33.94 L114.38,33.94 Z" id="Shape" fill="#53575A"></path>
                            <polygon id="Shape" fill="#53575A" points="117.41 30.72 118.34 30.72 120.02 33.72 120.02 30.72 120.84 30.72 120.84 35 120 35 118.28 32 118.28 35 117.45 35"></polygon>
                            <polygon id="Shape" fill="#53575A" points="125.92 30.72 125.92 31.47 124.66 31.47 124.66 35 123.77 35 123.77 31.47 122.5 31.47 122.5 30.72"></polygon>
                            <path d="M130.33,30.83 C130.482957,30.8959577 130.617015,30.9990792 130.72,31.13 C130.811672,31.2340812 130.885959,31.3522651 130.94,31.48 C130.994096,31.6238085 131.021216,31.7763581 131.02,31.93 C131.015501,32.1367605 130.960576,32.3392942 130.86,32.52 C130.755609,32.7186371 130.575238,32.8665419 130.36,32.93 C130.534791,32.9919169 130.683045,33.1119324 130.78,33.27 C130.873676,33.4767813 130.914894,33.7034787 130.9,33.93 L130.9,34.21 C130.891276,34.3431906 130.891276,34.4768094 130.9,34.61 C130.916357,34.7092793 130.974648,34.7967173 131.06,34.85 L131.06,35 L130.06,35 C130.035458,34.9245907 130.015422,34.8477884 130,34.77 L130,34.4 L130,34 C130.017033,33.8092387 129.967571,33.6184567 129.86,33.46 C129.712078,33.3547598 129.530251,33.3084116 129.35,33.33 L128.49,33.33 L128.49,35 L127.63,35 L127.63,30.72 L129.63,30.72 C129.867798,30.7178831 130.104313,30.7550498 130.33,30.83 L130.33,30.83 Z M128.5,31.46 L128.5,32.6 L129.45,32.6 C129.596468,32.6040334 129.742374,32.5802813 129.88,32.53 C130.052149,32.4347072 130.150599,32.2456824 130.13,32.05 C130.156076,31.8450251 130.062898,31.6431408 129.89,31.53 C129.760469,31.475674 129.620218,31.4517288 129.48,31.46 L128.5,31.46 Z" id="Shape" fill="#53575A"></path>
                            <path d="M136.3,34.58 C135.488028,35.2320235 134.331972,35.2320235 133.52,34.58 C133.071489,34.1117334 132.839409,33.4771384 132.88,32.83 C132.834669,32.1851618 133.067638,31.5517785 133.52,31.09 C134.326463,30.4224998 135.493537,30.4224998 136.3,31.09 C136.752362,31.5517785 136.985331,32.1851618 136.94,32.83 C136.980591,33.4771384 136.748511,34.1117334 136.3,34.58 L136.3,34.58 Z M135.74,33.94 C136.154337,33.2615942 136.154337,32.4084058 135.74,31.73 C135.542763,31.473325 135.233482,31.3280003 134.91,31.34 C134.583048,31.3246957 134.269301,31.4703637 134.07,31.73 C133.655663,32.4084058 133.655663,33.2615942 134.07,33.94 C134.271424,34.1958839 134.584829,34.3376624 134.91,34.32 C135.231714,34.3343668 135.540659,34.1929219 135.74,33.94 L135.74,33.94 Z" id="Shape" fill="#53575A"></path>
                            <polygon id="Shape" fill="#53575A" points="138.79 30.72 139.67 30.72 139.67 34.19 141.79 34.19 141.79 35 138.79 35"></polygon>
                            <path d="M150.88,30.82 C151.171817,30.9125571 151.424914,31.0988649 151.6,31.35 C151.744298,31.5580919 151.846234,31.7925463 151.9,32.04 C151.950694,32.269957 151.977503,32.5045348 151.98,32.74 C151.997015,33.2385378 151.879576,33.73247 151.64,34.17 C151.353698,34.6802259 150.804496,34.9857678 150.22,34.96 L148.4,34.96 L148.4,30.72 L150.22,30.72 C150.443574,30.7225561 150.665704,30.7562122 150.88,30.82 L150.88,30.82 Z M149.25,31.46 L149.25,34.22 L150.07,34.22 C150.468222,34.2308685 150.826211,33.9786493 150.95,33.6 C151.044137,33.3441116 151.088269,33.0725292 151.08,32.8 C151.097347,32.4552348 151.028615,32.1115727 150.88,31.8 C150.691243,31.5486659 150.381595,31.4186901 150.07,31.46 L149.25,31.46 Z" id="Shape" fill="#53575A"></path>
                            <polygon id="Shape" fill="#53575A" points="157 31.47 154.76 31.47 154.76 32.37 156.76 32.37 156.76 33.11 154.76 33.11 154.76 34.19 157.1 34.19 157.1 35 153.89 35 153.89 30.72 157 30.72"></polygon>
                            <path d="M164.54,30.72 L165.54,30.72 L167,35 L166,35 L165.72,34.13 L164.16,34.13 L164,35 L163,35 L164.54,30.72 Z M164.48,33.36 L165.57,33.36 L165,31.69 L164.48,33.36 Z" id="Shape" fill="#53575A"></path>
                            <path d="M169.16,31.17 C169.498956,30.8175471 169.971237,30.6250016 170.46,30.64 C171.059166,30.5951687 171.639805,30.8590952 172,31.34 C172.168138,31.5713017 172.268554,31.8448495 172.29,32.13 L171.41,32.13 C171.367504,31.9637369 171.292755,31.8074434 171.19,31.67 C171.008644,31.4800586 170.751932,31.3810413 170.49,31.4 C170.192468,31.3932016 169.912569,31.5407159 169.75,31.79 C169.542437,32.1177216 169.444386,32.5029241 169.47,32.89 C169.443514,33.266011 169.545788,33.6398404 169.76,33.95 C169.93207,34.1794634 170.203205,34.3131736 170.49,34.31 C170.757865,34.3275957 171.018007,34.2161064 171.19,34.01 C171.291807,33.8573705 171.366253,33.6881756 171.41,33.51 L172.28,33.51 C172.224427,33.9427999 172.019251,34.3425395 171.7,34.64 C171.37509,34.9338728 170.947713,35.0883031 170.51,35.07 C169.973373,35.1009883 169.45148,34.8878209 169.09,34.49 C168.719536,34.0343767 168.533922,33.4561183 168.57,32.87 C168.525272,32.2464089 168.738575,31.6318087 169.16,31.17 L169.16,31.17 Z" id="Shape" fill="#53575A"></path>
                            <path d="M174.58,31.17 C174.918956,30.8175471 175.391237,30.6250016 175.88,30.64 C176.481601,30.5973086 177.064254,30.8604423 177.43,31.34 C177.59415,31.5734098 177.694149,31.8458222 177.72,32.13 L176.83,32.13 C176.787504,31.9637369 176.712755,31.8074434 176.61,31.67 C176.429456,31.4788444 176.172146,31.379596 175.91,31.4 C175.612468,31.3932016 175.332569,31.5407159 175.17,31.79 C174.97026,32.1206897 174.876074,32.5044107 174.9,32.89 C174.870592,33.2648473 174.969312,33.6385742 175.18,33.95 C175.35207,34.1794634 175.623205,34.3131736 175.91,34.31 C176.177865,34.3275957 176.438007,34.2161064 176.61,34.01 C176.715917,33.8596574 176.790715,33.6896609 176.83,33.51 L177.71,33.51 C177.649699,33.9413177 177.44529,34.3395617 177.13,34.64 C176.799837,34.9317365 176.37031,35.0856504 175.93,35.07 C175.393615,35.0995399 174.872321,34.8866172 174.51,34.49 C173.79051,33.4915026 173.819063,32.1372836 174.58,31.17 L174.58,31.17 Z" id="Shape" fill="#53575A"></path>
                            <polygon id="Shape" fill="#53575A" points="182.73 31.47 180.49 31.47 180.49 32.37 182.49 32.37 182.49 33.11 180.49 33.11 180.49 34.19 182.83 34.19 182.83 35 179.62 35 179.62 30.72 182.73 30.72"></polygon>
                            <path d="M185.33,33.65 C185.34341,33.8051777 185.398712,33.9538002 185.49,34.08 C185.690916,34.2772411 185.970371,34.372844 186.25,34.34 C186.425271,34.3440868 186.600265,34.3238952 186.77,34.28 C186.994609,34.2196679 187.147962,34.0124344 187.14,33.78 C187.142989,33.6484537 187.073971,33.5257562 186.96,33.46 C186.77575,33.3611568 186.576376,33.2935722 186.37,33.26 L185.91,33.16 C185.587532,33.1057807 185.276509,32.9975988 184.99,32.84 C184.690031,32.6343456 184.525368,32.282044 184.56,31.92 C184.562581,31.563166 184.723839,31.2259915 185,31 C185.348232,30.7243134 185.78695,30.5887745 186.23,30.62 C186.641012,30.6098543 187.044327,30.7326024 187.38,30.97 C187.694757,31.206068 187.88,31.5765534 187.88,31.97 L187,31.97 C186.999716,31.739659 186.867591,31.5298144 186.66,31.43 C186.493315,31.3565424 186.311992,31.3223305 186.13,31.33 C185.934633,31.3175861 185.739918,31.3627876 185.57,31.46 C185.440251,31.5465555 185.364575,31.6941246 185.37,31.85 C185.363118,31.9930225 185.441649,32.1265264 185.57,32.19 C185.75068,32.2647821 185.938239,32.3217196 186.13,32.36 L186.88,32.54 C187.1414,32.5886478 187.389929,32.690783 187.61,32.84 C187.868023,33.0529095 188.009154,33.3760246 187.99,33.71 C188.008323,34.0960732 187.841105,34.4676694 187.54,34.71 C187.177273,34.9875004 186.725533,35.1226667 186.27,35.09 C185.804194,35.1170898 185.342807,34.9867744 184.96,34.72 C184.652765,34.4797956 184.475244,34.1099603 184.48,33.72 L185.33,33.65 Z" id="Shape" fill="#53575A"></path>
                            <path d="M193.05,34.58 C192.242559,35.2342399 191.087441,35.2342399 190.28,34.58 C189.827156,34.1144449 189.594349,33.477862 189.64,32.83 C189.590698,32.1846038 189.824252,31.5496307 190.28,31.09 C191.083252,30.4240418 192.246748,30.4240418 193.05,31.09 C193.505748,31.5496307 193.739302,32.1846038 193.69,32.83 C193.735651,33.477862 193.502844,34.1144449 193.05,34.58 Z M192.5,33.94 C192.914337,33.2615942 192.914337,32.4084058 192.5,31.73 C192.292896,31.4831751 191.987203,31.3406247 191.665,31.3406247 C191.342797,31.3406247 191.037104,31.4831751 190.83,31.73 C190.403857,32.4050385 190.403857,33.2649615 190.83,33.94 C191.040769,34.1806393 191.345108,34.3186485 191.665,34.3186485 C191.984892,34.3186485 192.289231,34.1806393 192.5,33.94 L192.5,33.94 Z" id="Shape" fill="#53575A"></path>
                        </g>
                    </g>
                </g>
            </g>
        </g>
    </g>
</svg>