<?xml version="1.0" encoding="utf-8"?>
<!-- Generator: Adobe Illustrator 24.3.0, SVG Export Plug-In . SVG Version: 6.00 Build 0)  -->
<svg version="1.1" id="Layer_1" xmlns="http://www.w3.org/2000/svg" xmlns:xlink="http://www.w3.org/1999/xlink" x="0px" y="0px"
	 viewBox="0 0 347 60.8" style="enable-background:new 0 0 347 60.8;" xml:space="preserve">
<style type="text/css">
	.st0{fill:#0679EA;}
</style>
<desc>Created with Sketch.</desc>
<g>
	<path class="st0" d="M167.4,52l-4.2-5.4h-19.6c0.4-0.5,23.8-31.3,23.8-31.3h-34.5l4.1,5.3h19.6c-0.4,0.5-23.9,31.3-23.9,31.3
		L167.4,52L167.4,52z"/>
	<path class="st0" d="M228,15.3h-16v36.5h5.5V20.8h9.7c9.6,0,15.3,4.4,15.3,11.7v19.4h5.4V32.2C248,23.8,241.8,15.3,228,15.3"/>
	<path class="st0" d="M283.1,4.9l0,10.4h-12.6c-9.2,0-16.4,6-18,15.1c-0.1,1.1-0.2,2.1-0.2,3.2c0,1,0.1,2.1,0.2,3.1
		c1.4,8.8,9,15.3,18,15.3l17.4,0V1.3L283.1,4.9L283.1,4.9z M282.4,20.8v25.8h-12.1c-5.7,0-11-4.4-12.4-10.2c0,0-0.2-2.8-0.2-2.8
		c0-0.9,0.1-1.9,0.2-2.8c1.3-6,6.5-10,12.8-10C270.8,20.8,282.1,20.8,282.4,20.8"/>
	<path class="st0" d="M206.5,35.6l0.1-2c0-10.9-8.7-19.7-19.6-19.7c-10.9,0-19.7,8.7-19.7,19.6s8.7,19.7,19.6,19.7
		c8.3,0,15.7-5.2,18.5-13h-5.8c-3.6,7-12.2,9.7-19.2,6c-4.1-2.1-6.9-6.1-7.5-10.7h28.6L206.5,35.6L206.5,35.6z M173.2,30.1
		c1.9-7.6,9.6-12.3,17.2-10.4c5.1,1.3,9.1,5.3,10.4,10.4H173.2z"/>
	<path class="st0" d="M92.8,15.4H66.8c-4.2,0-7.7,3.1-7.7,7.4v36.7"/>
	<path class="st0" d="M79.2,52.1H105c4.3,0,7.7-3.5,7.7-7.7V8"/>
</g>
</svg>
